<svg width="60" height="60" viewBox="0 0 60 60" fill="none" xmlns="http://www.w3.org/2000/svg">
<path d="M50.825 30.0003C50.825 41.7824 41.3935 51.3337 29.7592 51.3337C18.1249 51.3337 8.69336 41.7824 8.69336 30.0003C8.69336 18.2183 18.1249 8.66699 29.7592 8.66699C41.3935 8.66699 50.825 18.2183 50.825 30.0003Z" fill="#00BD57"/>
<path d="M27.8828 0.0513358C25.4564 0.248211 22.922 0.740398 20.9706 1.40134C18.7605 2.14665 17.4533 2.68102 15.7746 3.53415C14.1524 4.35446 13.3342 4.87477 11.9894 5.92009C9.68998 7.72009 7.63512 9.69821 6.38904 11.3201C4.74327 13.4623 4.11788 14.4748 2.90471 16.9685C2.2511 18.3091 2.0207 18.9185 1.36709 21.0466C0.83104 22.7904 0.718187 23.2263 0.544206 24.2107C0.266776 25.767 0.139817 26.4888 0.0833905 26.8826C0.00345316 27.4498 0.00345316 31.6873 0.0833905 32.5638C0.238563 34.2232 0.605334 36.3795 0.990915 37.8982C1.12728 38.4279 1.63041 39.942 1.8091 40.3591C1.89374 40.5513 2.00189 40.8279 2.04421 40.9685C2.09123 41.1092 2.17117 41.3107 2.21819 41.4092C2.26991 41.5123 2.34515 41.6998 2.38277 41.831C2.4486 42.0607 3.29029 43.7342 3.40784 43.8748C3.44076 43.9123 3.59123 44.1888 3.7464 44.4842C4.18371 45.3279 5.37336 47.2357 6.08339 48.2295C6.50189 48.8154 7.75738 50.1373 9.47368 51.8013C10.7903 53.0763 11.0113 53.2685 12.0787 54.042C13.574 55.1295 14.8812 55.9545 16.3154 56.7045C18.1257 57.656 21.027 58.7295 23.063 59.1982C23.6508 59.3295 25.6069 59.6482 26.4016 59.742C26.7637 59.7795 27.1775 59.8357 27.3185 59.8592C27.784 59.9435 29.6696 60.0138 30.6806 59.981C31.6539 59.9529 32.2323 59.906 33.7605 59.7185C35.9235 59.4513 37.4659 59.1045 39.563 58.4013C41.3311 57.8107 42.0458 57.4967 43.9643 56.4842C46.0662 55.3732 47.7214 54.2951 48.9721 53.217C49.179 53.0388 49.4847 52.7951 49.654 52.6779C50.0677 52.3873 51.2762 51.2623 51.8311 50.6482C53.0583 49.2982 53.7778 48.356 55.2308 46.1857C56.6602 44.0576 58.0051 41.1654 58.7292 38.6716C59.19 37.0732 59.3123 36.4685 59.6226 34.1951C59.7543 33.2388 59.8812 32.3248 59.9094 32.156C59.9847 31.6638 60.0129 29.5076 59.9612 28.2654C59.8765 26.3248 59.5521 24.206 59.0348 22.242C58.7339 21.0888 58.3248 19.8841 58.0286 19.2654C57.9486 19.0966 57.8828 18.9232 57.8828 18.8763C57.8828 18.8341 57.7888 18.6091 57.6806 18.3841C57.5678 18.1591 57.3091 17.6154 57.1116 17.1701C56.9094 16.7248 56.6884 16.2748 56.6179 16.1623C56.5474 16.0498 56.3687 15.7404 56.2182 15.4685C56.0677 15.1966 55.8279 14.7982 55.6869 14.5779C55.5458 14.3576 55.2684 13.9216 55.0709 13.6076C53.9141 11.7701 52.8656 10.5091 50.7402 8.38571C50.0348 7.68259 49.4094 7.10134 49.2308 6.98415C49.0615 6.87165 48.7793 6.65134 48.596 6.49196C47.6414 5.6529 45.6853 4.38259 43.9408 3.45915C43.1273 3.0279 40.5458 1.87009 40.2025 1.78102C40.085 1.7529 39.5066 1.57477 38.9094 1.38259C37.1508 0.824773 34.9972 0.384148 33.0552 0.187273C31.5881 0.0419608 28.8844 -0.0330392 27.8828 0.0513358ZM30.5818 0.843523C30.8358 0.970086 30.8969 0.984148 31.3154 0.984148C31.6869 0.984148 31.795 0.998211 31.8796 1.06852L31.9831 1.1529L31.4847 1.70602C30.7605 2.5029 30.469 2.96696 30.2386 3.6654C30.1775 3.84352 30.1163 3.98415 30.0975 3.98415C30.074 3.98415 30.0223 3.88571 29.9753 3.75915C29.8201 3.34665 29.4627 2.78415 28.9784 2.18884C28.8138 1.98727 28.6822 1.80446 28.6822 1.78102C28.6822 1.7529 28.6445 1.73415 28.5975 1.73415C28.4753 1.73415 28.3154 1.54665 28.2778 1.36852C28.2401 1.1904 28.2872 1.16696 28.8938 1.05915C29.2323 1.0029 29.3546 0.956023 29.5474 0.820086C29.7684 0.660711 29.806 0.651336 30.0458 0.674773C30.201 0.688836 30.4126 0.754461 30.5818 0.843523ZM35.2041 1.22321C35.5756 1.27009 36.6759 1.53259 37.085 1.66852C37.3953 1.77165 37.9972 2.07634 39.0317 2.6529C40.0991 3.24821 40.5176 3.39821 41.5192 3.56227C41.8859 3.62321 42.1304 3.71696 42.1304 3.80134C42.1304 3.89509 41.6837 4.32165 41.3499 4.54665C40.7527 4.9404 40.3436 5.03884 39.7276 4.92165C39.342 4.84665 39.0834 4.70134 38.9471 4.48102C38.7919 4.23727 38.458 3.87634 37.9455 3.40759C37.6304 3.11696 37.4423 2.9904 37.0756 2.81227C36.3985 2.48884 35.7684 2.30134 35.7072 2.39977C35.6555 2.48415 35.9329 2.6904 36.295 2.83102C36.8076 3.03259 37.4423 3.4779 37.9972 4.02634C38.505 4.53259 38.6978 4.80915 38.6978 5.0529C38.6978 5.2029 38.2934 5.84977 38.1007 5.99509C37.9925 6.08415 37.9126 6.09352 37.3483 6.09352C36.9063 6.09352 36.6712 6.07477 36.5583 6.0279C36.3467 5.93884 36.1539 5.63415 35.9894 5.13727C35.8342 4.66852 35.5474 4.10134 35.3358 3.85759C35.1759 3.67009 34.7762 3.42165 34.7245 3.4779C34.6775 3.52477 34.7809 3.69352 35.0913 4.0779C35.5474 4.64977 35.7166 5.11384 35.679 5.69977C35.6649 5.94352 35.6367 6.0279 35.5192 6.16852C35.237 6.52009 34.7574 6.65134 34.1461 6.54352C33.737 6.47321 33.3985 6.3279 33.2198 6.15446C33.0505 5.98102 33.0693 5.8779 33.2903 5.7654C33.5348 5.63884 33.6289 5.44665 33.6571 5.01071C33.6759 4.7154 33.6618 4.62634 33.5771 4.45759C33.4032 4.12009 32.9517 4.02165 32.538 4.2279C32.364 4.31696 32.2981 4.38727 32.1853 4.61696C32.0583 4.87009 32.0442 4.9404 32.0442 5.34352C32.0442 5.74665 32.0583 5.81696 32.1947 6.11227C32.4862 6.71696 33.2527 7.27946 33.9721 7.41071C34.4235 7.49509 35.237 7.43415 36.1351 7.24665C37.038 7.06384 37.5505 6.89509 38.7684 6.38884C40.4941 5.67634 41.5944 5.36696 42.7182 5.28727C43.5646 5.23102 44.3311 5.26852 44.8389 5.3904C46.0709 5.68571 46.8514 6.14977 47.6179 7.03102C48.4972 8.04352 48.7229 9.45446 48.2104 10.7248C47.8295 11.6763 47.1947 12.3185 46.2308 12.7263C45.5019 13.031 45.1822 13.1013 44.4815 13.1013C43.7715 13.1013 43.4847 13.0357 42.8358 12.7263C42.4173 12.5201 42.1257 12.3232 41.0442 11.4795C39.7041 10.4341 39.2433 10.1763 38.2746 9.93259C37.9784 9.85759 37.7151 9.77321 37.6916 9.74977C37.6163 9.67477 37.8373 9.29509 38.0913 9.04665C38.632 8.51227 39.6007 8.27321 40.1461 8.5404C40.4423 8.68102 40.8938 9.1404 41.1712 9.58102C41.4674 10.0545 42.0317 10.8138 42.2198 10.9873C42.3467 11.1091 42.3655 11.1138 42.3938 11.0388C42.4314 10.9451 42.3655 10.8232 41.9847 10.2982C41.8342 10.0873 41.585 9.67009 41.4298 9.37477C40.9173 8.38102 40.922 8.26852 41.5003 7.70134C41.7213 7.48571 41.9565 7.29821 42.0176 7.28415C42.0881 7.2654 42.2104 7.28415 42.3091 7.33102C42.4032 7.37321 42.6336 7.42477 42.817 7.4529C42.9956 7.47634 43.2637 7.54665 43.4047 7.61227L43.6634 7.72477L43.621 8.14196C43.5599 8.7654 43.6069 9.38415 43.7433 9.77321C43.9361 10.3263 44.1524 10.7013 44.2323 10.6263C44.2417 10.6123 44.1712 10.2982 44.0677 9.9279C43.9643 9.55759 43.8656 9.15915 43.8467 9.03259C43.7809 8.55446 44.0442 7.82321 44.3217 7.70602C44.5286 7.62165 45.0505 7.62165 45.2621 7.71071C45.4737 7.79509 46.0474 8.34821 46.1461 8.55446C46.3107 8.90134 46.2308 9.04665 45.8452 9.1029C45.2057 9.18727 44.7919 9.70759 44.9471 10.2279C44.9847 10.3404 45.1022 10.5138 45.248 10.6638C45.4549 10.8748 45.5254 10.917 45.7229 10.9451C46.2731 11.0295 46.7668 10.7623 47.0254 10.242C47.1477 9.99352 47.1759 9.86696 47.1994 9.52477C47.2417 8.74665 46.9972 8.12321 46.4141 7.54665C45.7417 6.88102 45.027 6.61852 43.7527 6.57634C42.3091 6.52477 41.4392 6.74509 39.3091 7.68727C38.585 8.00602 38.2887 8.10915 37.5458 8.29665C36.2433 8.62477 35.5615 8.73259 34.748 8.73727C33.7417 8.74196 33.1351 8.5779 32.2793 8.06227C31.8138 7.78102 31.4612 7.42009 31.179 6.92321C30.7229 6.12165 30.5912 5.59665 30.6242 4.75759C30.6712 3.6654 31.0286 2.99977 32.0254 2.15134C32.8812 1.42477 33.4596 1.19509 34.4753 1.17634C34.6728 1.17634 35.0019 1.19509 35.2041 1.22321ZM26.063 1.47165C26.98 1.64977 27.958 2.09509 28.4282 2.55446C28.7574 2.8779 29.1524 3.45446 29.284 3.81071C29.3875 4.08259 29.5097 4.69196 29.5568 5.15602C29.6414 6.05134 29.0301 7.2279 28.085 7.98259C27.1775 8.70446 26.4768 8.9529 25.3389 8.9529C24.121 8.9529 23.1336 8.71384 21.6242 8.06227C21.2198 7.88415 20.7872 7.71071 20.6602 7.67321C20.5332 7.63571 19.9126 7.40134 19.2778 7.15759C17.853 6.60446 17.7966 6.58571 17.1994 6.46384C16.3107 6.28102 15.1586 6.34665 14.505 6.62321C13.6633 6.97009 12.9768 7.70134 12.7323 8.49821C12.61 8.90602 12.6289 9.5154 12.7793 9.8529C12.9862 10.317 13.4047 10.6404 13.7997 10.6404C14.2041 10.6404 14.4392 10.4341 14.5285 9.99821C14.632 9.5154 14.5285 9.3654 13.8937 9.04196C13.7292 8.96227 13.7292 8.85915 13.8749 8.54509C13.9878 8.31071 14.2605 8.09977 14.6226 7.96384C15.0082 7.81852 15.5865 7.85134 15.9298 8.03884C16.226 8.19821 16.4094 8.47009 16.4094 8.73727C16.4094 8.9529 16.226 9.5154 16.0003 9.97946C15.8828 10.2279 15.7323 10.4341 15.4596 10.7154C15.248 10.9357 15.0928 11.1232 15.1116 11.142C15.1257 11.156 15.248 11.1232 15.3796 11.0576C15.864 10.8326 16.447 10.031 16.5928 9.39821C16.621 9.26696 16.6633 8.97165 16.6916 8.74196C16.7574 8.1654 16.8514 7.87477 17.0066 7.72477C17.1806 7.5654 17.2793 7.51852 17.8389 7.32634L18.3138 7.16696L18.5865 7.46227C18.9674 7.87477 19.1367 8.17009 19.1367 8.44665C19.1367 8.74196 18.864 9.26227 18.3702 9.91384C17.7872 10.6732 17.6743 10.842 17.7213 10.8888C17.7495 10.917 17.8201 10.8935 17.9047 10.8326C18.1351 10.6732 18.7558 9.99352 19.1085 9.5154C19.2919 9.27165 19.5881 8.9154 19.7715 8.7279L20.1053 8.3904H20.4298C20.8295 8.39509 21.2574 8.47946 21.5113 8.61071C21.9298 8.82634 22.5693 9.46852 22.5693 9.67009C22.5693 9.72165 22.5082 9.75446 22.3953 9.77321C21.5583 9.90446 21.4267 9.96071 20.0066 10.8607C17.4674 12.4638 16.6163 12.8013 15.2339 12.731C14.2699 12.6888 13.4235 12.4498 12.9345 12.0841C12.5066 11.7701 11.9658 11.1888 11.8295 10.9029C11.5944 10.406 11.3875 9.24352 11.4392 8.68102C11.4721 8.29665 11.7166 7.51384 11.9 7.1904C11.9752 7.05915 12.0364 6.91852 12.0364 6.87634C12.0364 6.83415 12.1069 6.75446 12.1915 6.69352C12.2715 6.63727 12.5348 6.4404 12.7652 6.25759C13.9878 5.30602 15.516 4.90759 17.0677 5.1279C18.4925 5.33415 18.7088 5.39977 21.1963 6.39352C23.5332 7.32634 23.9047 7.43884 24.8734 7.48571C26.6649 7.57477 27.7934 6.91384 28.0285 5.64352C28.132 5.07634 27.958 4.44821 27.6242 4.1904C27.1869 3.86227 26.5191 4.17634 26.5191 4.72009C26.5191 5.00602 26.6508 5.20759 26.9659 5.39509C27.121 5.48884 27.2762 5.62009 27.3091 5.6904C27.3655 5.79821 27.3608 5.8404 27.2715 6.02321C27.0035 6.58102 25.9455 6.93259 25.306 6.67946C24.7887 6.47321 24.5536 5.80759 24.7699 5.17946C24.8169 5.04821 25.0285 4.66384 25.2448 4.32165C25.4611 3.97946 25.6257 3.68884 25.6116 3.67477C25.5646 3.62321 25.0944 4.02634 24.9063 4.27946C24.6571 4.61227 24.4737 4.98259 24.3044 5.50759C24.0881 6.17321 23.9188 6.28571 22.9784 6.37946C22.6351 6.41227 22.4517 6.41227 22.3906 6.37946C22.3107 6.33727 22.0897 6.01384 21.7746 5.47946L21.6665 5.29196L21.7934 5.04821C22.1132 4.42477 22.7668 3.67477 23.5238 3.05134C23.9282 2.71852 24.0035 2.62477 23.8624 2.62477C23.5709 2.62477 23.0395 3.02321 21.9533 4.06384C21.0787 4.89821 20.8013 5.0904 20.4016 5.15134C20.11 5.19821 19.5411 5.14196 19.226 5.03884C18.6712 4.85134 18.0693 3.95602 18.2809 3.62321C18.2997 3.5904 18.4455 3.52477 18.5959 3.47321C19.4564 3.19665 20.4674 2.81696 21.0834 2.54977C22.0427 2.1279 22.527 1.94509 23.1947 1.7529C24.3326 1.42477 25.3154 1.33102 26.063 1.47165ZM30.2527 7.42477C30.4925 7.67321 30.5865 8.08102 30.4361 8.21227C30.3044 8.32946 29.9659 8.48415 29.8483 8.48415C29.6837 8.48415 29.2605 8.26852 29.1994 8.15602C29.0959 7.95915 29.3452 7.5279 29.6602 7.35915C29.9235 7.22321 30.0787 7.23727 30.2527 7.42477ZM10.9361 8.75602C10.9408 9.67946 11.0254 10.3076 11.2182 10.8607C11.284 11.0529 11.3263 11.2216 11.3122 11.2404C11.2934 11.2545 11.1053 11.2123 10.8937 11.142C10.6774 11.0716 10.3248 10.992 10.1085 10.9638C9.7323 10.9123 8.82948 10.9263 8.14766 10.9966C7.98308 11.0154 7.85142 11.0107 7.85142 10.9966C7.85142 10.8888 8.08183 10.556 8.31694 10.3263C8.57556 10.0685 8.59437 10.0357 8.62728 9.77321C8.6696 9.43102 8.81537 9.16384 9.10221 8.91071C9.295 8.74196 9.35142 8.71852 9.54421 8.71852C9.79343 8.71852 9.98622 8.60134 10.3436 8.22634C10.6069 7.94977 10.8185 7.81384 10.8796 7.87477C10.9078 7.9029 10.9314 8.28259 10.9361 8.75602ZM49.2402 8.37634C49.3859 8.46071 49.5646 8.58259 49.6398 8.64352C49.8279 8.79821 49.9596 8.85915 50.1007 8.85915C50.4439 8.85915 50.8389 9.23415 50.9282 9.64665C50.9847 9.91852 50.9894 9.92321 51.5254 10.3966C51.7088 10.556 51.9016 10.7482 51.9533 10.8185L52.0427 10.9498L51.3091 10.931C50.4298 10.9076 49.9972 10.9732 49.2167 11.2498C48.9298 11.3529 48.6853 11.4279 48.6759 11.4138C48.6618 11.3998 48.6947 11.2451 48.7558 11.0716C48.9486 10.481 48.9909 9.08415 48.8311 8.45134C48.7982 8.32009 48.7793 8.19821 48.7935 8.18415C48.8264 8.15134 48.9345 8.19821 49.2402 8.37634ZM32.0207 9.30915C33.8405 9.49196 35.9094 10.0123 37.8279 10.767C38.5803 11.0623 40.1602 11.8404 40.7903 12.2201C41.0207 12.3654 41.2605 12.4966 41.3217 12.5201C41.3781 12.5435 41.4251 12.581 41.4251 12.6045C41.4251 12.6279 41.5568 12.7263 41.7119 12.8248C42.4173 13.2513 43.8703 14.4466 44.6226 15.2154C45.6383 16.256 46.8373 17.6857 47.0489 18.1076C47.1195 18.2435 47.4063 18.7216 47.6931 19.1716C48.4173 20.3248 49.3812 22.3123 49.7903 23.4982C50.1524 24.5529 50.4627 25.8138 50.6132 26.8826C50.7119 27.581 50.8295 29.0154 50.8295 29.5545C50.8295 30.0748 50.7072 32.1232 50.6367 32.7888C50.5803 33.356 50.1477 35.4138 50.0254 35.7279C49.9784 35.8498 49.8938 36.1216 49.842 36.3373C49.6069 37.242 48.8029 39.1216 48.0834 40.4295C47.5145 41.4607 47.284 41.8029 46.4894 42.7638C45.2574 44.2638 44.759 44.7888 43.4706 45.9185C42.027 47.1842 41.4204 47.6013 39.8969 48.3701C37.8232 49.4248 35.7778 50.1654 34.0191 50.5029C33.0787 50.681 32.8671 50.7092 31.8326 50.7888C30.6289 50.8779 30.0881 50.8779 28.6304 50.7888C27.6336 50.7279 27.3185 50.6904 26.3734 50.5076C24.7793 50.2029 23.7872 49.931 22.6539 49.4951C21.9768 49.2373 20.9564 48.792 20.4439 48.5342C18.0082 47.3154 15.3185 45.192 13.8044 43.2935C12.2386 41.3342 10.5035 38.0201 9.87337 35.7795C9.61004 34.856 9.32791 33.2435 9.11161 31.4763C9.01286 30.6373 9.03637 28.6591 9.16333 27.6091C9.34202 26.1138 9.71819 24.4638 10.1555 23.2498C10.7151 21.7029 10.8279 21.4404 11.4862 20.1326C11.9894 19.1341 12.2574 18.6888 12.8358 17.906C14.1947 16.0685 15.9063 14.381 17.679 13.1248C18.9063 12.2529 20.4956 11.4091 22.3295 10.6404C24.2386 9.84821 26.6273 9.33259 28.9173 9.2154C29.5568 9.18259 31.3248 9.23415 32.0207 9.30915ZM9.9533 11.4373C10.3624 11.4701 10.5552 11.5076 10.8091 11.6154C11.1947 11.7795 11.6696 12.1029 11.8953 12.3607C12.8969 13.4951 13.2636 15.5341 12.7088 16.8748C12.6194 17.0951 12.469 17.3998 12.3749 17.5545C12.0599 18.0795 11.2887 19.1951 10.9831 19.5654C10.6539 19.9732 10.226 20.7701 9.92039 21.5482C9.82164 21.7966 9.70879 22.0263 9.66177 22.0545C9.59594 22.092 9.53481 22.0498 9.3044 21.806C8.92822 21.3935 8.83418 21.1357 8.80127 20.4045C8.78246 19.8888 8.78716 19.8185 8.8812 19.6263C9.00346 19.3779 9.24797 19.1435 9.57242 18.9607C10.4705 18.4545 11.2887 17.6623 11.7542 16.8513C12.0317 16.3638 12.2245 15.7029 12.0834 15.7029C12.0599 15.7029 12.0364 15.7638 12.0364 15.8388C12.0364 15.9138 12.0035 16.0076 11.9658 16.0498C11.9235 16.0873 11.8295 16.242 11.7495 16.392C11.2276 17.381 10.0332 18.417 9.10691 18.6795C8.6602 18.806 8.26992 18.6982 7.5881 18.2576C7.35769 18.1123 7.1602 17.981 7.15079 17.9716C7.12258 17.9435 7.67744 16.8654 7.79029 16.7295C7.92195 16.5748 8.11474 16.5279 9.07869 16.4295C10.1461 16.3216 10.4705 16.1904 10.9267 15.7029C11.1665 15.4404 11.3122 15.1591 11.2746 15.0373C11.2652 15.0091 11.0959 15.1357 10.9031 15.3232C10.4847 15.731 10.2495 15.8623 9.737 15.956C8.46741 16.1951 7.83731 15.8154 7.84202 14.8123C7.84672 14.5404 7.87493 14.381 7.95017 14.2029C8.12415 13.8045 8.70722 13.3591 9.06459 13.3591C9.23387 13.3591 9.28089 13.4248 9.33261 13.7341C9.37493 13.9826 9.50189 14.1795 9.68528 14.2732C9.96741 14.4185 10.2072 14.3388 10.5223 13.9966C10.6915 13.8138 10.7198 13.7529 10.7198 13.5841C10.7198 13.3263 10.4988 12.8576 10.3013 12.6888C10.1085 12.5295 9.91569 12.492 9.28559 12.4966C8.69311 12.5013 8.46741 12.567 8.0113 12.8763C7.22603 13.4107 6.88747 14.0951 6.64766 15.6326C6.54421 16.2982 6.58183 16.8279 6.76521 17.4841C6.958 18.1591 7.39531 19.4295 7.62571 19.9685C8.30753 21.5716 8.53794 22.2748 8.79656 23.531C8.91412 24.131 8.94233 24.3701 8.94233 24.8904C8.94233 25.8326 8.78246 26.6482 8.48622 27.2341C8.19468 27.8107 7.3718 28.6498 6.82634 28.9357C6.20095 29.2638 5.94233 29.3201 5.07712 29.3201C4.22132 29.3201 3.958 29.2638 3.26208 28.9451C2.17587 28.4482 1.37179 27.3326 1.1696 26.0529C1.04264 25.2513 1.28245 23.5029 1.64452 22.5466C1.76207 22.2466 2.14295 21.492 2.6743 20.5076C3.03167 19.8513 3.22916 19.392 3.54891 18.5013C3.61944 18.2998 3.71349 18.0888 3.76051 18.0326L3.84515 17.9295L4.05205 18.0279C4.1649 18.0841 4.3812 18.2388 4.52697 18.3748C4.89374 18.7076 4.95016 18.9091 4.92665 19.7763C4.90784 20.531 4.96897 20.4232 4.09907 21.3701C3.44546 22.0826 3.20095 22.4201 2.95643 22.9451C2.77305 23.3482 2.60377 23.892 2.64609 23.9388C2.66019 23.9482 2.74954 23.817 2.84828 23.6482C3.12571 23.1466 3.54891 22.6076 4.03794 22.1201C4.61631 21.5482 4.86553 21.3982 5.22289 21.4076C5.36866 21.4076 5.55675 21.4498 5.64609 21.492C5.95173 21.6513 6.54421 22.092 6.59123 22.1998C6.62885 22.2795 6.62885 22.4388 6.58653 22.7623C6.49249 23.5357 6.41255 23.6154 5.41568 23.9576C4.77618 24.1779 4.44703 24.342 4.08496 24.6279C3.7464 24.8904 3.39844 25.406 3.56302 25.406C3.58183 25.406 3.7417 25.2795 3.92038 25.1295C4.83731 24.3513 5.80126 24.0748 6.25267 24.4545C6.44546 24.6138 6.5207 24.7732 6.58183 25.1341C6.63825 25.5045 6.57712 25.9076 6.41725 26.1795C6.26208 26.4466 5.93763 26.7654 5.82477 26.7654C5.76835 26.7654 5.65079 26.6857 5.55205 26.592C5.458 26.4982 5.31223 26.3716 5.22289 26.3107C4.92195 26.1091 4.47524 26.1982 4.14139 26.531C4.00973 26.667 3.99562 26.7045 3.99562 26.981C3.99562 27.6701 4.3906 27.9795 5.21349 27.9232C6.42665 27.8388 7.14139 27.2201 7.45644 25.9779C7.76208 24.7732 7.47054 23.4888 6.26208 20.742C5.31694 18.5904 5.12415 17.8545 5.12415 16.4201C5.12415 14.817 5.57085 13.4904 6.38904 12.642C7.14139 11.8591 7.81851 11.517 8.76365 11.4373C9.38434 11.3857 9.37963 11.3857 9.9533 11.4373ZM51.7935 11.531C52.5834 11.7279 53.4345 12.2716 53.8718 12.8576C54.1822 13.2748 54.5019 13.9779 54.7558 14.7888L54.9768 15.492L54.9533 16.5232C54.9345 17.3951 54.911 17.6388 54.8076 18.117C54.6242 18.9748 54.2903 19.8982 53.6978 21.1873C52.9549 22.8091 52.7527 23.2638 52.5646 23.7888L52.3624 24.3513L52.3436 25.1576C52.3248 26.0201 52.3624 26.2638 52.5928 26.7185C52.8797 27.281 53.5662 27.806 54.3279 28.0357C54.6336 28.1248 55.1555 28.1013 55.3859 27.9841C55.8232 27.7638 56.143 27.3654 56.143 27.0373C56.143 26.8029 55.9314 26.4185 55.6869 26.2029C55.5129 26.0529 55.4377 26.0154 55.2825 26.0154C54.9345 26.0154 54.6383 26.2966 54.5677 26.6951C54.5066 27.0607 54.3279 27.1263 53.9424 26.9341C53.4956 26.7091 53.1383 26.2498 53.0395 25.7716C52.9455 25.3123 53.0442 25.017 53.3969 24.7076C53.8765 24.2904 54.4126 24.1498 54.9486 24.3045C55.48 24.4591 55.7668 24.6373 56.1994 25.092C56.5944 25.5045 56.6132 25.5185 56.6132 25.3826C56.6085 25.0545 55.8985 24.3185 55.3201 24.0513C55.1649 23.9763 54.8781 23.8826 54.6853 23.8357C54.1022 23.6998 53.9 23.5966 53.8342 23.3998C53.7731 23.2123 53.8013 22.4107 53.8812 22.2091C53.9141 22.1201 54.0458 22.0216 54.3279 21.867C54.7935 21.6185 54.9909 21.5904 55.3154 21.7451C55.6728 21.9185 56.5192 22.8748 57.1728 23.8545C57.3138 24.0654 57.4408 24.2248 57.4502 24.1966C57.4784 24.1123 57.2292 23.5685 56.9706 23.1326C56.8295 22.8982 56.538 22.4998 56.3264 22.242C55.8091 21.6232 55.3765 21.0091 55.1931 20.6388C55.0709 20.3904 55.038 20.2638 55.0239 19.9498C54.9721 19.0123 55.4 18.206 56.1242 17.8732C56.4533 17.7232 56.5004 17.7607 56.5427 18.1779C56.5944 18.6982 56.7073 19.2607 56.8577 19.7341C57.0223 20.2451 57.0975 20.4138 57.248 20.5779C57.375 20.7232 58.0333 21.9701 58.1602 22.317C58.3201 22.7482 58.5787 23.7701 58.6399 24.2107C58.7386 24.8904 58.7245 25.9779 58.6163 26.3435C58.4 27.0748 57.8875 27.9701 57.4079 28.4623C56.9518 28.9263 56.2558 29.1888 55.1978 29.2966C54.3562 29.381 53.6179 29.2826 53.096 29.0201C52.2731 28.6076 51.6806 27.9279 51.3467 27.0091C50.9188 25.842 50.9094 24.8576 51.3044 23.2779C51.5019 22.5045 51.5771 22.2982 52.1132 21.0935C52.3671 20.5123 52.6304 19.8888 52.6963 19.7107C52.7621 19.5279 52.8703 19.256 52.9455 19.1013C53.1665 18.6326 53.411 17.8498 53.4674 17.4373C53.5474 16.8373 53.4957 15.4029 53.3734 14.9201C53.0631 13.6873 52.3577 12.9138 51.2856 12.6279C50.9988 12.5529 50.5474 12.5435 50.3123 12.6091C49.8232 12.7451 49.4188 13.1951 49.4188 13.5982C49.4188 13.7951 49.4377 13.8326 49.6116 13.992C49.8844 14.2404 50.2746 14.4091 50.4862 14.3763C50.7072 14.3388 51.0082 14.1373 51.1022 13.9591C51.2527 13.692 51.3514 13.5935 51.4784 13.5935C51.8029 13.5935 52.3342 14.0248 52.3342 14.292C52.3342 14.3623 52.3765 14.4795 52.4282 14.5451C52.5458 14.6951 52.5458 14.817 52.4282 15.1966C52.3389 15.4826 52.1273 15.8388 51.9627 15.9748C51.784 16.1201 51.5019 16.2185 51.2386 16.2185C50.7825 16.2185 50.3264 16.0263 49.4471 15.4591C49.2919 15.3607 49.1602 15.2904 49.1508 15.2998C49.1085 15.342 49.3483 15.731 49.5505 15.9466C49.7997 16.2138 50.2088 16.4201 50.6179 16.4951C50.7731 16.5232 51.2339 16.5654 51.643 16.5935C52.0521 16.617 52.4282 16.6591 52.4753 16.6873C52.6163 16.7623 52.654 16.8701 52.6869 17.2966C52.701 17.517 52.7386 17.831 52.7715 17.9951L52.8232 18.2951L52.5693 18.5248C52.1978 18.8576 51.8687 19.0685 51.6524 19.1154C51.3609 19.181 50.9471 19.0732 50.4439 18.8013C50.0772 18.6045 49.8844 18.4498 49.2637 17.8638C48.563 17.1982 48.2433 16.9263 48.2433 16.992C48.2433 17.142 48.9862 18.0888 49.4235 18.4873C49.7668 18.806 50.2982 19.1623 50.8577 19.4482C51.5677 19.8138 51.7605 20.0623 51.7088 20.5638C51.643 21.206 50.853 22.3451 50.5003 22.3029C50.3734 22.2888 50.3217 22.1951 49.8467 21.1732C49.574 20.5873 48.9486 19.5654 48.1257 18.3513C47.5427 17.4935 47.364 17.1888 47.2558 16.8513C47.2229 16.7482 47.1618 16.617 47.1242 16.556C46.969 16.3216 47.143 14.8591 47.4251 14.0201C47.585 13.5466 47.806 13.2279 48.3562 12.6748C49.0662 11.967 49.748 11.5498 50.3734 11.4373C50.7167 11.3763 51.3467 11.4185 51.7935 11.531ZM14.5332 13.9638C14.7401 14.1701 14.7589 14.2732 14.6273 14.5545C14.505 14.8263 14.3687 14.9295 14.1336 14.9295C13.9031 14.9295 13.6915 14.7935 13.5646 14.5638C13.4564 14.3576 13.4941 14.2123 13.7245 13.9685C13.8843 13.7998 13.9267 13.781 14.1289 13.781C14.3263 13.781 14.3734 13.8045 14.5332 13.9638ZM45.8264 14.0295C46.1085 14.2826 46.1085 14.7373 45.8311 14.906C45.6665 15.0091 45.2903 15.0326 45.1351 14.9529C44.8154 14.7795 44.8389 14.1279 45.1775 13.9498C45.4032 13.8279 45.6383 13.856 45.8264 14.0295ZM1.15549 27.806C1.20251 27.9185 1.41411 28.1763 1.62101 28.3873C2.20878 28.9779 2.8765 29.4091 3.61004 29.6716C3.76991 29.7279 3.90157 29.7935 3.90157 29.8076C3.90157 29.8732 3.63355 30.0841 3.26678 30.3045C2.4533 30.7966 1.98308 31.2091 1.47994 31.8841C1.34828 32.0576 1.22132 32.2029 1.18841 32.2029C1.16019 32.2029 1.05675 32.0529 0.967404 31.8701C0.807529 31.5513 0.798125 31.5091 0.798125 31.0685C0.798125 30.6466 0.784018 30.581 0.652356 30.3185C0.478375 29.981 0.483077 29.817 0.671165 29.3435C0.755805 29.1326 0.798125 28.9029 0.821635 28.5935C0.849849 28.1482 0.967404 27.6091 1.03323 27.6091C1.05204 27.6091 1.10377 27.6982 1.15549 27.806ZM59.1289 27.9935C59.2699 28.6357 59.2794 28.7107 59.2417 28.8138C59.1665 29.0154 59.1947 29.2638 59.3405 29.6248C59.5192 30.0841 59.5239 30.2998 59.3452 30.5435C59.2135 30.717 59.2088 30.7545 59.19 31.2888C59.1806 31.7248 59.1524 31.8982 59.0819 32.0529L58.9878 32.2545L58.7903 31.9545C58.5693 31.617 57.8358 30.8998 57.342 30.5295C57.1587 30.3935 56.8483 30.1966 56.6508 30.0888C56.4486 29.981 56.2982 29.8779 56.3076 29.8545C56.3217 29.8357 56.538 29.7091 56.7872 29.5779C57.5395 29.1748 57.9768 28.8607 58.6446 28.2326C58.8467 28.0451 59.0301 27.8904 59.0584 27.8904C59.0819 27.8904 59.1148 27.9373 59.1289 27.9935ZM8.0113 29.4795C8.20409 29.606 8.32164 29.8076 8.32164 30.0185C8.32164 30.1638 8.28873 30.2295 8.15706 30.356C8.06302 30.4404 7.90785 30.5388 7.8044 30.567C7.5881 30.6326 7.43763 30.5576 7.28716 30.3138C7.18371 30.1498 7.1602 29.7748 7.24013 29.6248C7.36239 29.3998 7.77148 29.3248 8.0113 29.4795ZM52.3859 29.667C52.5975 29.8732 52.6257 30.056 52.4753 30.2435C52.2966 30.4685 51.8452 30.5998 51.7888 30.4451C51.7699 30.4076 51.7323 30.3748 51.6994 30.3748C51.5772 30.3748 51.4878 30.2295 51.4878 30.042C51.4878 29.6904 51.6712 29.4888 52.0003 29.4841C52.1743 29.4841 52.2308 29.5076 52.3859 29.667ZM5.6743 30.4732C7.56459 30.6841 8.50973 31.767 9.03167 34.331C9.19155 35.1232 9.18684 35.2638 8.93293 36.2341C8.76365 36.8763 8.57086 37.3638 8.05361 38.456C7.83731 38.9201 7.61631 39.417 7.56929 39.5576C7.52227 39.7029 7.3718 40.0591 7.24013 40.3545C6.71349 41.517 6.5207 42.1123 6.44076 42.8295C6.35142 43.6685 6.5207 44.831 6.82164 45.431C7.11788 46.0217 7.68684 46.6029 8.20879 46.8373C8.40158 46.9263 8.51913 46.9451 8.95644 46.9451C9.38904 46.9451 9.5113 46.9263 9.69468 46.842C10.3906 46.5232 10.7151 45.881 10.4329 45.3795C10.1649 44.9013 9.45957 44.7748 9.13982 45.1545C9.01757 45.2998 9.01286 45.3092 9.04108 45.8295C9.05518 46.1201 9.05989 46.3592 9.05048 46.3592C8.86239 46.3592 8.26051 46.2373 8.13825 46.1717C7.84672 46.0263 7.64452 45.7357 7.47995 45.2482C7.32948 44.8029 7.34829 44.5592 7.56929 44.1279C7.91255 43.4388 8.18528 43.2701 8.80597 43.3545C9.63826 43.4717 10.4894 43.8982 10.6022 44.2545C10.6492 44.3951 10.7198 44.3576 10.7198 44.1935C10.7198 44.0717 10.668 43.992 10.447 43.781C10.005 43.3498 9.39844 43.106 8.64139 43.0545C7.61161 42.9842 7.47995 42.8998 7.23543 42.192C7.05675 41.6576 7.05205 41.6717 7.42352 41.231C7.76208 40.8279 7.87023 40.7623 8.2323 40.7435C8.95644 40.7013 9.7323 41.0998 10.8373 42.0888C11.0724 42.2951 11.2652 42.4451 11.2746 42.4217C11.364 42.1592 10.2448 41.081 9.37023 40.5888C8.74484 40.242 8.50973 39.9654 8.50973 39.5857C8.51443 39.2576 8.62728 38.6716 8.72133 38.4841C8.83418 38.2685 9.44076 37.6779 9.53481 37.6966C9.58183 37.706 9.77932 38.0435 10.0379 38.5545C10.2683 39.0185 10.6351 39.6607 10.842 39.9841C11.0536 40.3076 11.2605 40.6451 11.3075 40.7341C11.3546 40.8232 11.5144 41.0857 11.6602 41.3201C12.1163 42.0373 12.5066 42.731 12.6053 43.0076C12.7558 43.4295 12.8122 44.2404 12.7464 44.967C12.6571 45.9373 12.4314 46.467 11.853 47.0763C11.2699 47.6857 10.6727 48.0748 10.0426 48.2576C9.64766 48.3748 8.31224 48.3373 7.79029 48.1967C7.18371 48.0326 6.84045 47.8357 6.40785 47.4045C6.06929 47.067 5.98465 46.9451 5.76364 46.4904C5.42509 45.7967 5.25581 45.3232 5.10534 44.6623C4.95016 43.9685 4.95016 43.631 5.12415 42.717C5.42979 41.0763 5.80596 39.9748 6.71819 38.0201C7.46114 36.4404 7.70565 35.5029 7.64923 34.4576C7.60691 33.567 7.28716 32.8029 6.75111 32.2685C6.2997 31.8279 6.0975 31.7341 5.58966 31.7341C5.03951 31.7341 4.86082 31.7951 4.5975 32.0623C4.30596 32.367 4.23543 32.592 4.34358 32.8826C4.50816 33.3138 4.83261 33.4966 5.15236 33.3466C5.32634 33.2623 5.68841 32.8545 5.68841 32.7373C5.68841 32.5545 6.18214 32.7888 6.46897 33.1076C6.70879 33.3748 6.81694 33.6654 6.84985 34.1576C6.87336 34.4482 6.86396 34.5138 6.77462 34.6591C6.56302 34.992 6.06459 35.292 5.64139 35.3295C5.43449 35.3482 5.32634 35.3295 5.12415 35.2451C4.79499 35.1091 4.32477 34.8091 4.00032 34.5326C3.62415 34.2091 3.50659 34.2373 3.75581 34.5841C4.00502 34.9216 4.57399 35.2404 5.53324 35.5779C5.84358 35.6857 6.16333 35.8123 6.23857 35.8591C6.47838 36.0045 6.54891 36.2295 6.57242 36.9373L6.59123 37.5701L6.34202 37.6873C6.20565 37.7529 5.93292 37.9076 5.74013 38.0295C5.54734 38.156 5.32164 38.2685 5.237 38.2826C4.98778 38.3248 4.65863 38.1045 4.12258 37.5466C3.55831 36.956 3.11631 36.3607 2.85298 35.8216C2.74954 35.6107 2.64609 35.4373 2.62728 35.4373C2.52383 35.4373 2.53794 35.667 2.65079 35.8826C2.71662 36.0045 2.77305 36.1357 2.77305 36.1732C2.77305 36.3982 3.28088 37.092 4.22603 38.156C4.57399 38.5498 4.75737 38.8029 4.90314 39.0935C5.08183 39.4591 5.10063 39.5201 5.09593 39.8435C5.09593 40.1201 5.05832 40.2841 4.93606 40.617C4.79029 41.0154 4.75738 41.0623 4.32948 41.4888C3.86396 41.9482 3.68998 42.0607 3.61474 41.9482C3.59593 41.9154 3.53951 41.7373 3.49719 41.5545C3.28088 40.6592 2.98935 39.8904 2.2464 38.3013C1.42352 36.5341 1.30596 36.1123 1.31066 34.9404C1.31066 34.4201 1.33418 34.1201 1.3812 33.9795C1.41881 33.867 1.46113 33.6982 1.47524 33.6091C1.52226 33.356 1.94546 32.5123 2.27932 32.0107C2.8859 31.1013 3.61004 30.6091 4.53637 30.4732C4.94076 30.417 5.16176 30.417 5.6743 30.4732ZM55.7433 30.6795C56.1571 30.7873 56.9283 31.181 57.2433 31.4435C57.3985 31.5701 57.6947 31.8654 57.9063 32.1045C58.2402 32.4748 58.3107 32.592 58.4565 32.967C58.5505 33.2013 58.6493 33.5482 58.6775 33.7357C58.748 34.2045 58.7386 35.5216 58.6634 35.9529C58.5928 36.3326 58.1226 37.542 57.7794 38.2263C56.9565 39.8576 56.6696 40.5982 56.5145 41.5076C56.4627 41.817 56.3922 42.0982 56.3593 42.131C56.2605 42.2342 55.9361 42.1076 55.6681 41.8685C55.5035 41.7185 55.3765 41.5451 55.2261 41.2357C54.9957 40.7717 54.9204 40.4623 54.9204 40.0076C54.9204 39.3748 55.1038 39.0654 56.0301 38.1326C56.3875 37.767 56.7919 37.317 56.9236 37.1248C57.2668 36.6279 57.8076 35.592 57.7417 35.5545C57.6571 35.5029 57.5678 35.6107 57.2715 36.1357C56.7731 37.0123 56.0442 37.7529 55.3577 38.0951C55.0756 38.2357 54.9815 38.2591 54.8076 38.2404C54.4972 38.2029 54.1869 38.0341 53.8436 37.706L53.5333 37.4154L53.538 37.0216C53.5427 36.6138 53.6132 36.3138 53.7402 36.1685C53.8624 36.0326 54.1963 35.8826 54.8029 35.6998C55.6399 35.4466 55.9737 35.2685 56.3593 34.8654C56.712 34.4951 56.9565 34.1201 56.933 33.9935C56.9236 33.942 56.8248 34.031 56.6226 34.2795C55.5505 35.5873 53.7872 35.8357 53.2511 34.7576C52.9549 34.1623 53.3969 33.1826 54.0458 32.9998C54.3138 32.9248 54.422 32.967 54.5536 33.1779C54.7464 33.492 55.1132 33.7498 55.3577 33.7498C55.6446 33.7498 55.9032 33.3466 55.9079 32.906C55.9079 32.5404 55.795 32.3716 55.4141 32.1935C54.5631 31.7998 53.6508 31.9498 53.0301 32.592C52.7198 32.9154 52.6257 33.0935 52.433 33.7263C52.2966 34.167 52.2872 34.242 52.2872 34.9216C52.2919 36.192 52.3342 36.356 53.1242 37.992C54.4784 40.8045 54.6759 41.2592 54.8499 41.9482C55.0568 42.7592 55.1273 44.3154 54.9909 45.117C54.9345 45.4498 54.8593 45.6513 54.6524 46.0638C54.2574 46.8607 53.9706 47.2685 53.411 47.8123C52.9737 48.2435 52.8467 48.3373 52.4235 48.5482C51.8452 48.8388 51.6148 48.8904 50.853 48.8904C50.1054 48.8904 49.8608 48.8435 49.3483 48.5904C48.6336 48.2342 47.9988 47.6013 47.6602 46.8982C47.3499 46.256 47.0677 45.1404 47.0677 44.5404C47.0677 43.9779 47.3828 42.8435 47.6978 42.2576C47.9188 41.8498 48.4408 41.0201 48.8311 40.4529C49.6257 39.2998 50.1054 38.3904 50.1759 37.8888C50.2229 37.5654 50.284 37.406 50.364 37.406C50.4486 37.406 51.0458 38.006 51.2292 38.2685C51.4502 38.592 51.5207 38.9716 51.4455 39.4873C51.3656 40.0732 51.2668 40.2185 50.5944 40.7529C49.5646 41.5732 48.6994 42.506 48.5113 42.9982C48.4643 43.1201 48.5066 43.0873 49.2214 42.431C50.3452 41.4045 51.0552 40.9076 51.3938 40.9076C51.7276 40.9076 52.0521 41.1232 52.5223 41.6529C52.6116 41.7513 52.7245 41.8545 52.7715 41.8826C52.8514 41.9295 52.8514 41.9529 52.7762 42.4217C52.6728 43.1013 52.574 43.4013 52.4141 43.5185C52.3013 43.5982 52.1837 43.617 51.4737 43.6451C50.458 43.692 50.3828 43.7107 49.7762 44.1326C49.4141 44.3857 49.1837 44.5967 49.1837 44.6717C49.1837 44.7279 49.2167 44.7092 49.7245 44.3763C50.1101 44.1138 50.5897 43.9592 51.0035 43.9498C51.3138 43.9498 51.375 43.9638 51.7558 44.156C52.2778 44.4232 52.353 44.5451 52.353 45.1404C52.3577 45.4732 52.3342 45.581 52.2308 45.806C52.0003 46.3029 51.516 46.6967 51.1163 46.706L50.9518 46.7107L50.8906 46.3123C50.8389 45.9467 50.8201 45.8998 50.6696 45.7592C50.4486 45.5623 50.1618 45.5529 49.7997 45.731C49.4941 45.8857 49.4188 45.9982 49.3859 46.3451C49.3483 46.7435 49.4377 47.0013 49.6963 47.2545C50.016 47.5732 50.3546 47.6857 50.9 47.6623C51.5866 47.6342 52.0615 47.3623 52.5599 46.7201C52.9173 46.2513 53.3217 45.5576 53.4204 45.2248C53.6132 44.592 53.6132 42.9279 53.4157 42.0935C53.3029 41.6201 52.7527 40.2045 52.2025 38.9998C51.4361 37.3076 51.2057 36.4216 51.2057 35.1841C51.2057 33.0935 51.8969 31.7482 53.3452 31.017C54.0505 30.6654 55.1038 30.5154 55.7433 30.6795ZM14.3781 45.206C14.4862 45.3138 14.505 45.3701 14.505 45.6138C14.505 45.8576 14.4909 45.9092 14.3875 45.9842C14.2417 46.0967 13.9126 46.1482 13.7198 46.0967C13.3013 45.9748 13.2731 45.342 13.6774 45.1123C13.8702 45.0045 14.2276 45.0513 14.3781 45.206ZM45.7605 45.1967C45.9956 45.3279 46.132 45.5529 46.1414 45.8154C46.1508 45.9888 46.1273 46.0498 46.0098 46.1763C45.6336 46.5748 45.1304 46.5232 44.8953 46.0685C44.7919 45.8717 44.7731 45.5295 44.8577 45.3748C45.0035 45.1029 45.4361 45.0185 45.7605 45.1967ZM15.7981 46.8935C16.5881 47.0623 17.143 47.3482 18.8781 48.4685C19.8091 49.0685 20.7307 49.542 21.643 49.8748C22.0238 50.0107 22.3342 50.1467 22.3342 50.1654C22.3342 50.2545 22.0991 50.5685 21.8922 50.756C21.469 51.1451 20.8013 51.3654 20.2464 51.3045C19.6492 51.2342 19.5834 51.1826 18.8169 50.1701C18.201 49.3592 17.9141 49.0638 17.4204 48.7357C17.1336 48.5482 16.7856 48.4076 16.7856 48.4826C16.7856 48.4967 16.9596 48.6513 17.1759 48.8342C17.5897 49.1857 18.1445 49.7998 18.469 50.2638C18.6994 50.5967 18.9016 51.1779 18.9016 51.5154C18.9016 51.7076 18.8734 51.7779 18.6947 52.017C18.4549 52.3357 17.947 52.8279 17.8624 52.8279C17.8295 52.8279 17.759 52.7857 17.7025 52.7342C17.6461 52.6779 17.4345 52.5701 17.2323 52.4857C17.0207 52.4013 16.8279 52.2842 16.7809 52.2185C16.7339 52.1529 16.6492 51.8717 16.5928 51.5857C16.3624 50.3857 15.9251 49.3873 15.5254 49.1576C15.342 49.0545 15.3044 49.1107 15.4267 49.317C15.9204 50.1607 16.1696 51.267 15.9909 51.806C15.9204 52.0263 15.6618 52.2513 15.4455 52.2935C15.2433 52.331 14.8718 52.2607 14.5709 52.1342C14.2793 52.0076 13.8091 51.6092 13.7104 51.4029C13.6163 51.206 13.6445 51.1404 13.9173 50.8263C14.2934 50.3998 14.2934 49.7951 13.9126 49.3967C13.7668 49.242 13.7151 49.2185 13.5364 49.2185C13.2731 49.2185 13.0709 49.3404 12.864 49.6263C12.6524 49.9123 12.6006 50.1326 12.6006 50.7092C12.6006 51.1685 12.6006 51.1732 12.8358 51.6513C13.1132 52.2138 13.4282 52.5748 13.9549 52.9263C14.411 53.231 14.6414 53.292 15.4878 53.3248C16.527 53.367 17.1524 53.2967 18.1963 53.0201C19.2919 52.7248 19.6492 52.6029 20.759 52.1388C22.8044 51.281 23.8718 50.9998 25.085 50.9998C26.5238 50.9998 27.516 51.3701 28.527 52.2842C28.8091 52.5373 29.143 53.0248 29.3828 53.531L29.5521 53.8826L29.5474 54.6092C29.5427 55.256 29.5285 55.3826 29.4157 55.7482C29.3499 55.9779 29.2464 56.2498 29.19 56.3576C28.6116 57.4967 27.3185 58.5232 26.19 58.7388C26.0207 58.7717 25.5458 58.7951 25.132 58.7951C24.4737 58.7951 24.3232 58.781 23.9141 58.6732C23.3028 58.5092 22.1743 58.0592 20.6696 57.3654C19.9972 57.056 19.2307 56.7326 18.9721 56.6435C18.5912 56.517 17.9188 56.3951 17.6038 56.3904C17.3922 56.3904 17.6132 55.8373 17.9282 55.5701C18.4643 55.1107 19.5834 54.7967 20.1712 54.9373C20.4533 55.0029 20.632 55.1435 21.6053 56.0623C22.6069 57.0045 23.3922 57.4732 24.0787 57.5482C24.4878 57.5904 24.4361 57.506 23.8436 57.1873C22.9408 56.7045 21.6571 55.6404 21.4455 55.1998C21.3232 54.9513 21.3185 54.6045 21.4361 54.3513C21.5583 54.0795 22.0756 53.4185 22.2025 53.3623C22.2637 53.3342 22.4047 53.3295 22.5223 53.3482C22.6398 53.367 22.8514 53.3857 22.9972 53.3857C23.3217 53.3904 23.5427 53.4607 23.7072 53.6154C23.8624 53.756 23.9141 53.9154 23.9517 54.342C24.0176 55.031 24.3279 55.6498 24.864 56.1654C25.1884 56.4795 25.621 56.7326 25.922 56.7888C26.1947 56.8404 26.1336 56.742 25.7668 56.5498C25.3389 56.3295 24.8028 55.7717 24.5818 55.3217C24.4361 55.031 24.4267 54.9748 24.4267 54.5388C24.4267 53.9998 24.5066 53.7701 24.8028 53.4467C25.0474 53.1748 25.2966 53.0904 25.7809 53.1185C26.4674 53.1513 26.9517 53.4888 27.1116 54.0326C27.2245 54.4263 27.201 54.4826 26.8812 54.5482C26.2323 54.6748 26.0912 55.2607 26.585 55.7529C26.8295 56.0013 26.9753 56.0388 27.2903 55.9498C27.5959 55.8607 27.8969 55.6076 28.0615 55.2935C28.1743 55.0779 28.1884 55.0076 28.1884 54.5623C28.1884 54.0982 28.179 54.0467 28.038 53.7607C27.8452 53.3717 27.5771 53.067 27.2104 52.8185C26.7637 52.5138 26.2182 52.3451 25.2637 52.2138C24.8828 52.1623 24.7746 52.1623 24.3467 52.2373C23.2135 52.4342 22.0191 52.8935 21.0082 53.517C20.2041 54.0138 19.4047 54.3373 18.2386 54.6513C17.411 54.8717 16.922 54.942 16.1931 54.942C15.422 54.9467 15.121 54.8998 14.4674 54.6748C13.4282 54.3185 12.8122 53.9248 12.2339 53.2498C11.4815 52.3685 11.3028 51.8154 11.3405 50.4888C11.3593 49.8326 11.3687 49.7904 11.5332 49.392C11.8248 48.6795 12.4831 47.8123 12.7323 47.8123C12.7793 47.8123 12.8828 47.7326 12.9627 47.6342C13.2025 47.3388 13.9408 47.0342 14.7495 46.8982C15.2339 46.8185 15.4314 46.8185 15.7981 46.8935ZM45.5866 47.1326C46.4847 47.292 46.9643 47.5357 47.5897 48.1404C48.2386 48.7732 48.6383 49.4717 48.7652 50.1842C48.9204 51.0701 48.643 52.3685 48.1446 53.0951C47.7449 53.6763 46.9737 54.3092 46.3107 54.5951C45.6477 54.881 45.1634 54.956 43.9878 54.9607C42.4784 54.9607 41.9518 54.8435 40.5317 54.2013C40.1038 54.0092 39.6524 53.8123 39.5207 53.7654C39.3938 53.7185 38.853 53.4935 38.3217 53.2592C36.5489 52.4857 36.3279 52.4342 34.8138 52.4623C33.7135 52.481 33.6994 52.4857 33.0364 52.8701C32.5662 53.142 32.1665 53.5263 31.9925 53.8873C31.8702 54.1404 31.8561 54.2107 31.8561 54.6795C31.8561 55.2654 31.9267 55.4623 32.2135 55.6967C32.6508 56.0482 33.5066 55.8279 33.596 55.3404C33.6665 54.9748 33.3749 54.5248 32.9988 54.4123C32.9 54.3842 32.7966 54.3326 32.7684 54.2998C32.6226 54.1217 33.0082 53.5685 33.4267 53.3623C33.563 53.292 33.817 53.2076 33.9909 53.1748C34.2966 53.1138 34.306 53.1185 34.4894 53.2404C34.9314 53.5404 35.2652 54.0373 35.2652 54.3888C35.2652 54.6842 35.1195 55.3779 35.0113 55.617C34.8091 56.0576 34.3342 56.4935 33.7558 56.7701C33.4502 56.9201 33.4173 57.0138 33.6618 57.0373C34.0615 57.0795 34.7057 56.6295 35.1242 56.0154C35.3687 55.6592 35.4392 55.4717 35.5756 54.867C35.6414 54.5717 35.759 54.2107 35.853 54.0185C36.0411 53.6295 36.1869 53.5357 36.911 53.306C37.6351 53.081 37.6022 53.081 37.6681 53.2873C37.6963 53.381 37.8044 53.6201 37.8985 53.8123C38.1336 54.281 38.1947 54.4826 38.19 54.7779C38.1853 55.1435 37.9972 55.481 37.4988 56.006C36.9815 56.5498 36.5301 56.9201 35.9423 57.2623C35.6978 57.4029 35.5003 57.5342 35.5003 57.5482C35.5003 57.6045 35.8671 57.5013 36.2574 57.3326C36.8405 57.0795 37.1555 56.8357 38.063 55.9217C38.8953 55.0826 39.121 54.8951 39.4126 54.8013C39.6477 54.7263 40.1696 54.731 40.4612 54.8154C41.063 54.9842 41.2041 55.0638 41.5709 55.4482C41.9047 55.7951 42.2574 56.3482 42.201 56.4373C42.1916 56.456 41.9188 56.4842 41.5991 56.5029C40.5552 56.5592 40.0615 56.7232 37.8985 57.7123C37.0803 58.092 36.7746 58.2092 36.0035 58.4482C35.5615 58.5842 34.0756 58.6732 33.5066 58.6029C33.0505 58.542 32.5803 58.3638 32.1712 58.0873C31.8514 57.867 31.3718 57.3701 31.1978 57.0701C30.8358 56.4607 30.5536 55.5232 30.5583 54.9654C30.563 54.5763 30.7323 53.8592 30.9204 53.4279C31.2825 52.6076 31.8891 51.9373 32.5803 51.5904C33.2339 51.267 33.5536 51.2107 34.748 51.2107C35.9047 51.2154 36.248 51.2623 37.1179 51.5623C37.7057 51.7638 38.8577 52.2185 39.3655 52.4435C39.5395 52.5232 39.911 52.6732 40.1884 52.7763C40.4659 52.8795 40.8655 53.0388 41.0771 53.1279C41.9 53.4888 42.9204 53.6482 44.096 53.6107C45.1587 53.5779 45.7323 53.4232 46.3671 52.9967C47.3264 52.3545 47.806 51.3795 47.5615 50.5545C47.3969 49.992 47.1665 49.6685 46.8232 49.5279C46.2825 49.3029 45.7558 49.6826 45.8076 50.2592C45.8311 50.4607 45.864 50.517 46.1696 50.8357C46.353 51.0279 46.5035 51.2201 46.5035 51.2623C46.5035 51.4029 46.2025 51.8998 46.0003 52.106C45.7417 52.3638 45.5536 52.4201 45.074 52.3967C44.5192 52.3685 44.3217 52.2513 44.1054 51.8248C43.9596 51.5295 43.9408 51.4545 43.9408 51.1217C43.9408 50.5357 44.1148 50.2123 44.9424 49.2701C45.2433 48.9232 45.2856 48.8435 45.1587 48.8435C45.0599 48.8435 44.1242 49.7529 43.9549 50.0154C43.7198 50.381 43.5834 50.9013 43.5411 51.5857C43.4988 52.3123 43.4329 52.5138 43.1931 52.6123C43.0521 52.6685 41.9941 52.9217 41.8859 52.9217C41.8671 52.9217 41.7731 52.8092 41.679 52.6685C41.585 52.5279 41.4251 52.3545 41.3264 52.2842C41.2229 52.2138 41.0724 52.0826 40.9925 51.9935C40.8561 51.8388 40.8514 51.8107 40.875 51.5342C40.9126 51.0232 41.3734 50.292 42.0975 49.5795C42.5395 49.1482 42.8781 48.8998 43.5176 48.5388C43.7762 48.3935 44.0207 48.2435 44.0583 48.2013C44.1195 48.1357 44.1101 48.131 43.9643 48.1545C43.6775 48.192 42.9674 48.5201 42.4878 48.8342C41.8906 49.2279 41.1806 49.9076 40.6963 50.5545C40.2637 51.131 40.0097 51.3888 39.8029 51.4685C39.4361 51.6138 38.6461 51.4685 38.2135 51.1826C37.9549 51.0138 37.6257 50.6529 37.5599 50.4701C37.5317 50.3998 37.48 50.3435 37.4376 50.3435C37.3718 50.3388 37.3812 50.3248 37.4659 50.2498C37.5646 50.1654 37.6775 50.1373 38.3217 50.0248C38.8107 49.9357 39.4596 49.5654 40.5646 48.7404C41.7449 47.8638 42.9627 47.2404 43.8467 47.067C44.1618 47.006 45.0599 47.0388 45.5866 47.1326ZM10.9925 49.0592L10.795 49.5232L10.8044 50.6623C10.8185 51.9513 10.8279 51.9138 10.4564 51.7732C10.3107 51.717 10.2072 51.6373 10.1273 51.5154C9.99562 51.3138 9.77932 51.1545 9.42666 50.9951C9.14923 50.8638 8.55675 50.3013 8.55675 50.1701C8.55675 50.1185 8.42509 49.8935 8.26051 49.6779C7.97838 49.2982 7.8138 49.0076 7.86083 48.9607C7.87023 48.9467 8.22289 48.9607 8.63669 48.9935C9.59123 49.0592 10.0097 49.0123 10.6821 48.7592C10.9502 48.656 11.1712 48.581 11.1806 48.5857C11.1853 48.5904 11.1006 48.8013 10.9925 49.0592ZM49.7762 49.2888C50.3875 49.4013 51.0928 49.4435 51.6712 49.3967C51.9627 49.3732 52.212 49.3638 52.2261 49.3732C52.2637 49.4154 51.8123 49.9685 51.5583 50.1842C51.4126 50.3107 51.2198 50.531 51.1351 50.6717C50.9424 50.9904 50.8342 51.0888 50.4768 51.2763C50.3217 51.356 50.0395 51.5482 49.8467 51.7029C49.3342 52.1107 49.1038 52.1295 49.1508 51.7638C49.2778 50.7888 49.2825 50.6998 49.2308 50.1185C49.2025 49.7904 49.1649 49.4529 49.1508 49.3685C49.1273 49.2279 49.132 49.2185 49.2684 49.2185C49.3436 49.2185 49.574 49.2513 49.7762 49.2888ZM30.4173 51.7404C30.6289 51.9092 30.7229 52.092 30.6806 52.256C30.643 52.4154 30.2292 52.8279 30.1116 52.8279C29.947 52.8279 29.6038 52.6217 29.5144 52.467C29.4063 52.2842 29.3969 51.9748 29.4956 51.8295C29.6837 51.5388 30.1163 51.4967 30.4173 51.7404ZM30.3091 56.7326C30.7887 57.5342 31.0286 57.8717 31.4988 58.392C31.7339 58.6545 31.9267 58.8935 31.9267 58.9217C31.9267 58.9498 31.8467 59.006 31.7527 59.0435C31.6116 59.1045 31.48 59.1138 31.0756 59.0857L30.5771 59.0529L30.5442 59.1701C30.5019 59.3388 30.2621 59.4935 30.0035 59.517C29.7825 59.5404 29.6226 59.4607 29.237 59.1513C29.1195 59.0576 29.0959 59.0529 28.8985 59.1092C28.6069 59.1888 27.8593 59.156 27.7605 59.0529C27.69 58.9873 27.7276 58.9451 28.1696 58.6123C28.7198 58.1998 29.3969 57.5342 29.4721 57.342C29.5003 57.267 29.5991 57.0185 29.6884 56.7842C29.7825 56.5498 29.8577 56.3248 29.8577 56.2873C29.8577 56.1982 29.9047 56.1513 29.9564 56.1842C29.98 56.1982 30.1398 56.4467 30.3091 56.7326Z" fill="#00BD57"/>
<path d="M3.36013 33.7915C3.34603 33.8149 3.38835 33.8946 3.45418 33.9696C3.57644 34.1056 3.60465 34.0728 3.52471 33.8712C3.47769 33.7446 3.41186 33.7165 3.36013 33.7915Z" fill="#00BD57"/>
<g clip-path="url(#clip0)">
<path d="M43.4684 29.1116C43.4689 27.9396 42.9534 26.8265 42.0582 26.0668C42.3994 25.512 42.579 24.8735 42.5768 24.2228C42.5744 22.4199 41.2207 20.9032 39.4247 20.6913C39.4456 20.536 39.456 20.3795 39.4559 20.2229C39.4606 18.2636 37.8711 16.6716 35.9057 16.667C34.7492 16.6643 33.6635 17.222 32.9945 18.1624C31.8592 16.5652 29.64 16.188 28.0378 17.3197C27.7103 17.5511 27.4245 17.836 27.1925 18.1624C26.0509 16.5658 23.827 16.194 22.2254 17.332C21.1512 18.0952 20.5883 19.3878 20.7622 20.6913C18.9663 20.9032 17.6126 22.4199 17.6102 24.2228C17.608 24.8735 17.7875 25.512 18.1287 26.0668C16.4421 27.4996 16.24 30.0243 17.6774 31.7056C17.8156 31.8674 17.9665 32.0178 18.1287 32.1556C17.7874 32.7106 17.6078 33.3494 17.6102 34.0004C17.6124 35.9632 19.208 37.5537 21.1769 37.5559H23.8518V42.4448H22.5144C22.2681 42.4448 22.0685 42.6438 22.0685 42.8892C22.0685 43.1346 22.2681 43.3336 22.5144 43.3336H37.6726C37.9188 43.3336 38.1184 43.1346 38.1184 42.8892C38.1184 42.6438 37.9188 42.4448 37.6726 42.4448H36.3351V37.5559H39.0101C40.979 37.5537 42.5745 35.9632 42.5768 34.0004C42.579 33.3497 42.3994 32.7112 42.0582 32.1565C42.9534 31.3967 43.4689 30.2835 43.4684 29.1116ZM21.1769 36.6631C19.7017 36.6616 18.5056 35.471 18.5019 34.0004C18.5001 33.396 18.7068 32.8093 19.0872 32.3387C19.2409 32.1469 19.2095 31.8672 19.0171 31.714C19.0078 31.7066 18.9982 31.6995 18.9883 31.6929C17.5582 30.7338 17.1788 28.8007 18.1409 27.375C18.366 27.0415 18.6537 26.7547 18.9883 26.5303C19.1924 26.393 19.2462 26.1168 19.1084 25.9133C19.1017 25.9034 19.0947 25.8939 19.0872 25.8846C18.7068 25.4139 18.5001 24.8272 18.5019 24.2228C18.5033 22.7507 19.7001 21.5576 21.1769 21.5562L21.2923 21.5624C21.4365 21.5696 21.5749 21.5052 21.6619 21.3904C21.7505 21.2771 21.7783 21.1278 21.7364 20.9904C21.3187 19.5778 22.129 18.0951 23.5461 17.6787C24.8059 17.3086 26.1488 17.9049 26.7154 19.086C26.7154 19.0904 26.7154 19.0949 26.7123 19.0993C26.6567 19.2659 26.6138 19.4365 26.5839 19.6095C26.5785 19.6393 26.5745 19.6695 26.5701 19.6984C26.5167 20.0265 26.5127 20.3607 26.558 20.69C24.7616 20.902 23.4077 22.4194 23.406 24.2228C23.4038 24.8735 23.5833 25.512 23.9245 26.0668C23.9165 26.0739 23.9098 26.0814 23.9018 26.0885L21.8264 24.0197C21.6493 23.8492 21.3671 23.8541 21.196 24.0306C21.0292 24.2029 21.0292 24.4759 21.196 24.6481L23.2968 26.7423C22.0472 28.4313 22.3214 30.7961 23.9245 32.1565C23.7525 32.4362 23.621 32.7387 23.534 33.0551L21.9379 31.464C21.7608 31.2935 21.4786 31.2984 21.3075 31.4749C21.1406 31.6471 21.1406 31.9202 21.3075 32.0925L23.4158 34.1942C23.4194 34.256 23.4203 34.3182 23.427 34.3787C23.4314 34.4204 23.4399 34.4604 23.4457 34.5013C23.4573 34.5835 23.4689 34.6653 23.4863 34.7458C23.4965 34.7938 23.5108 34.84 23.5228 34.8871C23.5411 34.9582 23.5594 35.0298 23.5821 35.0991C23.5982 35.1484 23.6173 35.1955 23.6356 35.244C23.6601 35.3089 23.6847 35.3742 23.7132 35.4373C23.7346 35.4853 23.7578 35.532 23.7814 35.5786C23.8117 35.6395 23.8429 35.6995 23.8764 35.7564C23.9027 35.8009 23.9308 35.8453 23.9593 35.8897C23.995 35.9462 24.0315 36.0013 24.0703 36.0551C24.1011 36.0995 24.1332 36.1408 24.1662 36.1826C24.2067 36.2351 24.2491 36.2853 24.2928 36.3351C24.328 36.3751 24.3637 36.4146 24.4002 36.4528C24.4448 36.5008 24.4943 36.5466 24.5433 36.592C24.5679 36.6151 24.5906 36.6408 24.616 36.6631H21.1769ZM29.6477 42.4448H24.7435V37.5559H29.6477V42.4448ZM30.0935 22.445C29.8473 22.445 29.6477 22.644 29.6477 22.8895V26.0388L27.6222 24.0197C27.4451 23.8492 27.1629 23.8541 26.9918 24.0306C26.825 24.2029 26.825 24.4759 26.9918 24.6481L29.6477 27.2956V33.372L27.7337 31.464C27.5566 31.2935 27.2744 31.2984 27.1033 31.4749C26.9364 31.6471 26.9364 31.9202 27.1033 32.0925L29.6477 34.6289V36.6671H26.9727C25.4959 36.6656 24.2991 35.4726 24.2977 34.0004C24.296 33.396 24.5026 32.8093 24.8831 32.3387C25.0367 32.1469 25.0053 31.8672 24.8129 31.714C24.8036 31.7066 24.794 31.6995 24.7841 31.6929C23.354 30.7338 22.9746 28.8007 23.9367 27.375C24.1618 27.0415 24.4495 26.7547 24.7841 26.5303C24.9882 26.393 25.042 26.1168 24.9042 25.9133C24.8975 25.9034 24.8905 25.8939 24.8831 25.8846C24.5026 25.4139 24.296 24.8272 24.2977 24.2228C24.2991 22.7507 25.4959 21.5576 26.9727 21.5562L27.0881 21.5624C27.2325 21.5704 27.3712 21.5058 27.4577 21.3904C27.5463 21.2771 27.5741 21.1278 27.5322 20.9904C27.4571 20.7414 27.4187 20.4829 27.4185 20.2229C27.4187 20.0588 27.4344 19.8951 27.4653 19.734C27.4653 19.7278 27.4653 19.7211 27.468 19.7149C27.5003 19.5544 27.547 19.3972 27.6075 19.2451C28.0101 18.2269 28.9957 17.5573 30.0935 17.5562C31.1913 17.5573 32.1769 18.2269 32.5794 19.2451C32.6401 19.3982 32.6868 19.5565 32.719 19.718C32.719 19.7242 32.719 19.7309 32.7217 19.7371C32.7524 19.8972 32.768 20.0599 32.7685 20.2229C32.7682 20.4829 32.7299 20.7414 32.6548 20.9904C32.6129 21.1278 32.6406 21.2771 32.7292 21.3904C32.8161 21.5054 32.9546 21.5698 33.0988 21.5624L33.2143 21.5562C34.6911 21.5576 35.8878 22.7507 35.8893 24.2228C35.891 24.8272 35.6844 25.4139 35.3039 25.8846C35.1503 26.0763 35.1816 26.356 35.374 26.5092C35.3833 26.5167 35.393 26.5237 35.4029 26.5303C36.8329 27.4894 37.2123 29.4226 36.2502 30.8482C36.0252 31.1817 35.7374 31.4686 35.4029 31.6929C35.1988 31.8302 35.145 32.1065 35.2827 32.3099C35.2894 32.3198 35.2965 32.3293 35.3039 32.3387C35.6844 32.8093 35.891 33.396 35.8893 34.0004C35.8878 35.4726 34.6911 36.6656 33.2143 36.6671H30.5393V30.5983C30.5726 30.5819 30.6036 30.5613 30.6316 30.5369L33.5295 27.6481C33.7006 27.4715 33.6957 27.1902 33.5186 27.0196C33.3458 26.8533 33.0719 26.8533 32.8991 27.0196L30.5393 29.3721V22.8895C30.5393 22.644 30.3397 22.445 30.0935 22.445ZM35.4435 42.4448H30.5393V37.5559H35.4435V42.4448ZM41.0785 32.3099C41.0852 32.3198 41.0922 32.3293 41.0997 32.3387C41.4801 32.8093 41.6868 33.396 41.685 34.0004C41.6836 35.4726 40.4868 36.6656 39.01 36.6671H35.571C35.5964 36.6448 35.6191 36.6191 35.6436 36.596C35.6927 36.5515 35.7404 36.5048 35.7867 36.4568C35.8233 36.4186 35.859 36.3791 35.8942 36.3391C35.9388 36.2893 35.9802 36.2391 36.0208 36.1866C36.0538 36.1448 36.0859 36.1026 36.1167 36.0591C36.1554 36.0053 36.192 35.9502 36.2277 35.8937C36.2562 35.8493 36.2843 35.8049 36.3106 35.7604C36.344 35.7017 36.3752 35.6417 36.4056 35.5826C36.4287 35.536 36.4501 35.4893 36.4738 35.4413C36.5023 35.3782 36.5268 35.3129 36.5513 35.248C36.5696 35.1995 36.5888 35.1524 36.6048 35.1031C36.6276 35.0338 36.6459 34.9622 36.6641 34.8911C36.6762 34.844 36.6904 34.7978 36.7007 34.7498C36.7181 34.6693 36.7297 34.5875 36.7413 34.5053C36.7471 34.4644 36.7555 34.4244 36.76 34.3827C36.7739 34.2557 36.7809 34.1281 36.7809 34.0004C36.7832 33.3497 36.6036 32.7112 36.2624 32.1565C37.1039 31.44 37.6105 30.4083 37.6619 29.3063L39.3253 27.6481C39.4964 27.4715 39.4915 27.1902 39.3144 27.0196C39.1416 26.8533 38.8677 26.8533 38.6949 27.0196L37.5531 28.1579C37.3535 27.3438 36.9019 26.613 36.2624 26.069C36.604 25.5136 36.7836 24.8743 36.7809 24.2228C36.7786 22.4199 35.4249 20.9032 33.6289 20.6913C33.6738 20.362 33.6693 20.0277 33.6155 19.6998C33.6111 19.6695 33.6071 19.6393 33.6017 19.6109C33.5719 19.4378 33.5289 19.2673 33.4733 19.1007C33.4733 19.0962 33.4733 19.0918 33.4702 19.0873C34.1077 17.7587 35.7048 17.1968 37.0376 17.8323C38.2223 18.3972 38.8205 19.736 38.4492 20.9917C38.4073 21.1292 38.4351 21.2784 38.5237 21.3917C38.6108 21.5065 38.7491 21.5709 38.8933 21.5637L39.0101 21.5562C40.4869 21.5576 41.6836 22.7507 41.6851 24.2228C41.6868 24.8272 41.4802 25.4139 41.0997 25.8846C40.9461 26.0763 40.9774 26.356 41.1698 26.5092C41.1791 26.5167 41.1888 26.5237 41.1987 26.5303C42.6287 27.4894 43.0081 29.4226 42.046 30.8482C41.821 31.1817 41.5332 31.4686 41.1987 31.6929C40.9946 31.8302 40.9408 32.1065 41.0785 32.3099Z" fill="white"/>
</g>
<defs>
<clipPath id="clip0">
<rect width="26.7503" height="26.6667" fill="white" transform="translate(16.7188 16.667)"/>
</clipPath>
</defs>
</svg>
