<svg width="60" height="60" viewBox="0 0 60 60" fill="none" xmlns="http://www.w3.org/2000/svg">
<path d="M50.666 30.0003C50.666 41.7824 41.264 51.3337 29.666 51.3337C18.068 51.3337 8.66602 41.7824 8.66602 30.0003C8.66602 18.2182 18.068 8.66699 29.666 8.66699C41.264 8.66699 50.666 18.2182 50.666 30.0003Z" fill="#3AB037"/>
<path d="M27.7957 0.0513358C25.377 0.248211 22.8504 0.740398 20.9051 1.40134C18.702 2.14665 17.3988 2.68102 15.7254 3.53415C14.1082 4.35446 13.2926 4.87477 11.952 5.92009C9.65977 7.72009 7.61133 9.69821 6.36914 11.3201C4.72852 13.4623 4.10508 14.4748 2.8957 16.9685C2.24414 18.3091 2.01445 18.9185 1.36289 21.0466C0.828516 22.7904 0.716016 23.2263 0.542578 24.2107C0.266016 25.767 0.139453 26.4888 0.0832031 26.8826C0.00351562 27.4498 0.00351562 31.6873 0.0832031 32.5638C0.237891 34.2232 0.603516 36.3795 0.987891 37.8982C1.12383 38.4279 1.62539 39.942 1.80352 40.3591C1.88789 40.5513 1.9957 40.8279 2.03789 40.9685C2.08477 41.1092 2.16445 41.3107 2.21133 41.4092C2.26289 41.5123 2.33789 41.6998 2.37539 41.831C2.44102 42.0607 3.28008 43.7342 3.39727 43.8748C3.43008 43.9123 3.58008 44.1888 3.73477 44.4842C4.1707 45.3279 5.35664 47.2357 6.06446 48.2295C6.48164 48.8154 7.73321 50.1373 9.44414 51.8013C10.7566 53.0763 10.977 53.2685 12.041 54.042C13.5316 55.1295 14.8348 55.9545 16.2645 56.7045C18.0691 57.656 20.9613 58.7295 22.991 59.1982C23.577 59.3295 25.527 59.6482 26.3192 59.742C26.6801 59.7795 27.0926 59.8357 27.2332 59.8592C27.6973 59.9435 29.577 60.0138 30.5848 59.981C31.5551 59.9529 32.1317 59.906 33.6551 59.7185C35.8113 59.4513 37.3488 59.1045 39.4395 58.4013C41.202 57.8107 41.9145 57.4967 43.827 56.4842C45.9223 55.3732 47.5723 54.2951 48.8192 53.217C49.0254 53.0388 49.3301 52.7951 49.4988 52.6779C49.9113 52.3873 51.116 51.2623 51.6692 50.6482C52.8926 49.2982 53.6098 48.356 55.0582 46.1857C56.4832 44.0576 57.8238 41.1654 58.5457 38.6716C59.0051 37.0732 59.127 36.4685 59.4363 34.1951C59.5676 33.2388 59.6942 32.3248 59.7223 32.156C59.7973 31.6638 59.8254 29.5076 59.7738 28.2654C59.6895 26.3248 59.366 24.206 58.8504 22.242C58.5504 21.0888 58.1426 19.8841 57.8473 19.2654C57.7676 19.0966 57.702 18.9232 57.702 18.8763C57.702 18.8341 57.6082 18.6091 57.5004 18.3841C57.3879 18.1591 57.1301 17.6154 56.9332 17.1701C56.7317 16.7248 56.5113 16.2748 56.441 16.1623C56.3707 16.0498 56.1926 15.7404 56.0426 15.4685C55.8926 15.1966 55.6535 14.7982 55.5129 14.5779C55.3723 14.3576 55.0957 13.9216 54.8988 13.6076C53.7457 11.7701 52.7004 10.5091 50.5817 8.38571C49.8785 7.68259 49.2551 7.10134 49.077 6.98415C48.9082 6.87165 48.627 6.65134 48.4442 6.49196C47.4926 5.6529 45.5426 4.38259 43.8035 3.45915C42.9926 3.0279 40.4192 1.87009 40.077 1.78102C39.9598 1.7529 39.3832 1.57477 38.7879 1.38259C37.0348 0.824773 34.8879 0.384148 32.952 0.187273C31.4895 0.0419608 28.7942 -0.0330392 27.7957 0.0513358ZM30.4863 0.843523C30.7395 0.970086 30.8004 0.984148 31.2176 0.984148C31.5879 0.984148 31.6957 0.998211 31.7801 1.06852L31.8832 1.1529L31.3863 1.70602C30.6645 2.5029 30.3738 2.96696 30.1442 3.6654C30.0832 3.84352 30.0223 3.98415 30.0035 3.98415C29.9801 3.98415 29.9285 3.88571 29.8817 3.75915C29.727 3.34665 29.3707 2.78415 28.8879 2.18884C28.7238 1.98727 28.5926 1.80446 28.5926 1.78102C28.5926 1.7529 28.5551 1.73415 28.5082 1.73415C28.3863 1.73415 28.227 1.54665 28.1895 1.36852C28.152 1.1904 28.1988 1.16696 28.8035 1.05915C29.141 1.0029 29.2629 0.956023 29.4551 0.820086C29.6754 0.660711 29.7129 0.651336 29.952 0.674773C30.1067 0.688836 30.3176 0.754461 30.4863 0.843523ZM35.0942 1.22321C35.4645 1.27009 36.5613 1.53259 36.9692 1.66852C37.2785 1.77165 37.8785 2.07634 38.9098 2.6529C39.9738 3.24821 40.391 3.39821 41.3895 3.56227C41.7551 3.62321 41.9988 3.71696 41.9988 3.80134C41.9988 3.89509 41.5535 4.32165 41.2207 4.54665C40.6254 4.9404 40.2176 5.03884 39.6035 4.92165C39.2192 4.84665 38.9613 4.70134 38.8254 4.48102C38.6707 4.23727 38.3379 3.87634 37.827 3.40759C37.5129 3.11696 37.3254 2.9904 36.9598 2.81227C36.2848 2.48884 35.6567 2.30134 35.5957 2.39977C35.5442 2.48415 35.8207 2.6904 36.1817 2.83102C36.6926 3.03259 37.3254 3.4779 37.8785 4.02634C38.3848 4.53259 38.577 4.80915 38.577 5.0529C38.577 5.2029 38.1738 5.84977 37.9817 5.99509C37.8738 6.08415 37.7942 6.09352 37.2317 6.09352C36.791 6.09352 36.5567 6.07477 36.4442 6.0279C36.2332 5.93884 36.041 5.63415 35.877 5.13727C35.7223 4.66852 35.4363 4.10134 35.2254 3.85759C35.066 3.67009 34.6676 3.42165 34.616 3.4779C34.5692 3.52477 34.6723 3.69352 34.9817 4.0779C35.4363 4.64977 35.6051 5.11384 35.5676 5.69977C35.5535 5.94352 35.5254 6.0279 35.4082 6.16852C35.127 6.52009 34.6488 6.65134 34.0395 6.54352C33.6317 6.47321 33.2942 6.3279 33.116 6.15446C32.9473 5.98102 32.966 5.8779 33.1863 5.7654C33.4301 5.63884 33.5238 5.44665 33.552 5.01071C33.5707 4.7154 33.5567 4.62634 33.4723 4.45759C33.2988 4.12009 32.8488 4.02165 32.4363 4.2279C32.2629 4.31696 32.1973 4.38727 32.0848 4.61696C31.9582 4.87009 31.9442 4.9404 31.9442 5.34352C31.9442 5.74665 31.9582 5.81696 32.0942 6.11227C32.3848 6.71696 33.1488 7.27946 33.866 7.41071C34.316 7.49509 35.127 7.43415 36.0223 7.24665C36.9223 7.06384 37.4332 6.89509 38.6473 6.38884C40.3676 5.67634 41.4645 5.36696 42.5848 5.28727C43.4285 5.23102 44.1926 5.26852 44.6988 5.3904C45.927 5.68571 46.7051 6.14977 47.4692 7.03102C48.3457 8.04352 48.5707 9.45446 48.0598 10.7248C47.6801 11.6763 47.0473 12.3185 46.0863 12.7263C45.3598 13.031 45.041 13.1013 44.3426 13.1013C43.6348 13.1013 43.3488 13.0357 42.702 12.7263C42.2848 12.5201 41.9942 12.3232 40.916 11.4795C39.5801 10.4341 39.1207 10.1763 38.1551 9.93259C37.8598 9.85759 37.5973 9.77321 37.5738 9.74977C37.4988 9.67477 37.7192 9.29509 37.9723 9.04665C38.5113 8.51227 39.477 8.27321 40.0207 8.5404C40.316 8.68102 40.766 9.1404 41.0426 9.58102C41.3379 10.0545 41.9004 10.8138 42.0879 10.9873C42.2145 11.1091 42.2332 11.1138 42.2613 11.0388C42.2988 10.9451 42.2332 10.8232 41.8535 10.2982C41.7035 10.0873 41.4551 9.67009 41.3004 9.37477C40.7895 8.38102 40.7942 8.26852 41.3707 7.70134C41.591 7.48571 41.8254 7.29821 41.8863 7.28415C41.9567 7.2654 42.0785 7.28415 42.177 7.33102C42.2707 7.37321 42.5004 7.42477 42.6832 7.4529C42.8613 7.47634 43.1285 7.54665 43.2692 7.61227L43.527 7.72477L43.4848 8.14196C43.4238 8.7654 43.4707 9.38415 43.6067 9.77321C43.7988 10.3263 44.0145 10.7013 44.0942 10.6263C44.1035 10.6123 44.0332 10.2982 43.9301 9.9279C43.827 9.55759 43.7285 9.15915 43.7098 9.03259C43.6442 8.55446 43.9067 7.82321 44.1832 7.70602C44.3895 7.62165 44.9098 7.62165 45.1207 7.71071C45.3317 7.79509 45.9035 8.34821 46.002 8.55446C46.166 8.90134 46.0863 9.04665 45.702 9.1029C45.0645 9.18727 44.652 9.70759 44.8067 10.2279C44.8442 10.3404 44.9613 10.5138 45.1067 10.6638C45.3129 10.8748 45.3832 10.917 45.5801 10.9451C46.1285 11.0295 46.6207 10.7623 46.8785 10.242C47.0004 9.99352 47.0285 9.86696 47.052 9.52477C47.0942 8.74665 46.8504 8.12321 46.2692 7.54665C45.5988 6.88102 44.8863 6.61852 43.616 6.57634C42.177 6.52477 41.3098 6.74509 39.1863 7.68727C38.4645 8.00602 38.1692 8.10915 37.4285 8.29665C36.1301 8.62477 35.4504 8.73259 34.6395 8.73727C33.6363 8.74196 33.0317 8.5779 32.1785 8.06227C31.7145 7.78102 31.3629 7.42009 31.0817 6.92321C30.627 6.12165 30.4957 5.59665 30.5285 4.75759C30.5754 3.6654 30.9317 2.99977 31.9254 2.15134C32.7785 1.42477 33.3551 1.19509 34.3676 1.17634C34.5645 1.17634 34.8926 1.19509 35.0942 1.22321ZM25.9817 1.47165C26.8957 1.64977 27.8707 2.09509 28.3395 2.55446C28.6676 2.8779 29.0613 3.45446 29.1926 3.81071C29.2957 4.08259 29.4176 4.69196 29.4645 5.15602C29.5488 6.05134 28.9395 7.2279 27.9973 7.98259C27.0926 8.70446 26.3942 8.9529 25.2598 8.9529C24.0457 8.9529 23.0613 8.71384 21.5566 8.06227C21.1535 7.88415 20.7223 7.71071 20.5957 7.67321C20.4691 7.63571 19.8504 7.40134 19.2176 7.15759C17.7973 6.60446 17.741 6.58571 17.1457 6.46384C16.2598 6.28102 15.1113 6.34665 14.4598 6.62321C13.6207 6.97009 12.9363 7.70134 12.6926 8.49821C12.5707 8.90602 12.5895 9.5154 12.7395 9.8529C12.9457 10.317 13.3629 10.6404 13.7566 10.6404C14.1598 10.6404 14.3941 10.4341 14.4832 9.99821C14.5863 9.5154 14.4832 9.3654 13.8504 9.04196C13.6863 8.96227 13.6863 8.85915 13.8316 8.54509C13.9441 8.31071 14.216 8.09977 14.577 7.96384C14.9613 7.81852 15.5379 7.85134 15.8801 8.03884C16.1754 8.19821 16.3582 8.47009 16.3582 8.73727C16.3582 8.9529 16.1754 9.5154 15.9504 9.97946C15.8332 10.2279 15.6832 10.4341 15.4113 10.7154C15.2004 10.9357 15.0457 11.1232 15.0645 11.142C15.0785 11.156 15.2004 11.1232 15.3316 11.0576C15.8145 10.8326 16.3957 10.031 16.541 9.39821C16.5691 9.26696 16.6113 8.97165 16.6395 8.74196C16.7051 8.1654 16.7988 7.87477 16.9535 7.72477C17.127 7.5654 17.2254 7.51852 17.7832 7.32634L18.2566 7.16696L18.5285 7.46227C18.9082 7.87477 19.077 8.17009 19.077 8.44665C19.077 8.74196 18.8051 9.26227 18.3129 9.91384C17.7316 10.6732 17.6191 10.842 17.666 10.8888C17.6941 10.917 17.7645 10.8935 17.8488 10.8326C18.0785 10.6732 18.6973 9.99352 19.0488 9.5154C19.2316 9.27165 19.527 8.9154 19.7098 8.7279L20.0426 8.3904H20.366C20.7645 8.39509 21.191 8.47946 21.4441 8.61071C21.8613 8.82634 22.4988 9.46852 22.4988 9.67009C22.4988 9.72165 22.4379 9.75446 22.3254 9.77321C21.491 9.90446 21.3598 9.96071 19.9441 10.8607C17.4129 12.4638 16.5645 12.8013 15.1863 12.731C14.2254 12.6888 13.3816 12.4498 12.8941 12.0841C12.4676 11.7701 11.9285 11.1888 11.7926 10.9029C11.5582 10.406 11.352 9.24352 11.4035 8.68102C11.4363 8.29665 11.6801 7.51384 11.8629 7.1904C11.9379 7.05915 11.9988 6.91852 11.9988 6.87634C11.9988 6.83415 12.0691 6.75446 12.1535 6.69352C12.2332 6.63727 12.4957 6.4404 12.7254 6.25759C13.9441 5.30602 15.4676 4.90759 17.0145 5.1279C18.4348 5.33415 18.6504 5.39977 21.1301 6.39352C23.4598 7.32634 23.8301 7.43884 24.7957 7.48571C26.5817 7.57477 27.7067 6.91384 27.941 5.64352C28.0442 5.07634 27.8707 4.44821 27.5379 4.1904C27.102 3.86227 26.4363 4.17634 26.4363 4.72009C26.4363 5.00602 26.5676 5.20759 26.8817 5.39509C27.0363 5.48884 27.191 5.62009 27.2238 5.6904C27.2801 5.79821 27.2754 5.8404 27.1863 6.02321C26.9192 6.58102 25.8645 6.93259 25.227 6.67946C24.7113 6.47321 24.477 5.80759 24.6926 5.17946C24.7395 5.04821 24.9504 4.66384 25.166 4.32165C25.3817 3.97946 25.5457 3.68884 25.5317 3.67477C25.4848 3.62321 25.016 4.02634 24.8285 4.27946C24.5801 4.61227 24.3973 4.98259 24.2285 5.50759C24.0129 6.17321 23.8442 6.28571 22.9067 6.37946C22.5645 6.41227 22.3817 6.41227 22.3207 6.37946C22.241 6.33727 22.0207 6.01384 21.7067 5.47946L21.5988 5.29196L21.7254 5.04821C22.0442 4.42477 22.6957 3.67477 23.4504 3.05134C23.8535 2.71852 23.9285 2.62477 23.7879 2.62477C23.4973 2.62477 22.9676 3.02321 21.8848 4.06384C21.0129 4.89821 20.7363 5.0904 20.3379 5.15134C20.0473 5.19821 19.4801 5.14196 19.166 5.03884C18.6129 4.85134 18.0129 3.95602 18.2238 3.62321C18.2426 3.5904 18.3879 3.52477 18.5379 3.47321C19.3957 3.19665 20.4035 2.81696 21.0176 2.54977C21.9738 2.1279 22.4567 1.94509 23.1223 1.7529C24.2567 1.42477 25.2363 1.33102 25.9817 1.47165ZM30.1582 7.42477C30.3973 7.67321 30.491 8.08102 30.341 8.21227C30.2098 8.32946 29.8723 8.48415 29.7551 8.48415C29.591 8.48415 29.1692 8.26852 29.1082 8.15602C29.0051 7.95915 29.2535 7.5279 29.5676 7.35915C29.8301 7.22321 29.9848 7.23727 30.1582 7.42477ZM10.902 8.75602C10.9066 9.67946 10.991 10.3076 11.1832 10.8607C11.2488 11.0529 11.291 11.2216 11.277 11.2404C11.2582 11.2545 11.0707 11.2123 10.8598 11.142C10.6441 11.0716 10.2926 10.992 10.077 10.9638C9.70196 10.9123 8.80196 10.9263 8.12227 10.9966C7.95821 11.0154 7.82696 11.0107 7.82696 10.9966C7.82696 10.8888 8.05664 10.556 8.29102 10.3263C8.54883 10.0685 8.56758 10.0357 8.60039 9.77321C8.64258 9.43102 8.78789 9.16384 9.07383 8.91071C9.26602 8.74196 9.32227 8.71852 9.51446 8.71852C9.76289 8.71852 9.95508 8.60134 10.3113 8.22634C10.5738 7.94977 10.7848 7.81384 10.8457 7.87477C10.8738 7.9029 10.8973 8.28259 10.902 8.75602ZM49.0863 8.37634C49.2317 8.46071 49.4098 8.58259 49.4848 8.64352C49.6723 8.79821 49.8035 8.85915 49.9442 8.85915C50.2863 8.85915 50.6801 9.23415 50.7692 9.64665C50.8254 9.91852 50.8301 9.92321 51.3645 10.3966C51.5473 10.556 51.7395 10.7482 51.791 10.8185L51.8801 10.9498L51.1488 10.931C50.2723 10.9076 49.841 10.9732 49.0629 11.2498C48.777 11.3529 48.5332 11.4279 48.5238 11.4138C48.5098 11.3998 48.5426 11.2451 48.6035 11.0716C48.7957 10.481 48.8379 9.08415 48.6785 8.45134C48.6457 8.32009 48.627 8.19821 48.641 8.18415C48.6738 8.15134 48.7817 8.19821 49.0863 8.37634ZM31.9207 9.30915C33.7348 9.49196 35.7973 10.0123 37.7098 10.767C38.4598 11.0623 40.0348 11.8404 40.6629 12.2201C40.8926 12.3654 41.1317 12.4966 41.1926 12.5201C41.2488 12.5435 41.2957 12.581 41.2957 12.6045C41.2957 12.6279 41.427 12.7263 41.5817 12.8248C42.2848 13.2513 43.7332 14.4466 44.4832 15.2154C45.4957 16.256 46.691 17.6857 46.902 18.1076C46.9723 18.2435 47.2582 18.7216 47.5442 19.1716C48.266 20.3248 49.227 22.3123 49.6348 23.4982C49.9957 24.5529 50.3051 25.8138 50.4551 26.8826C50.5535 27.581 50.6707 29.0154 50.6707 29.5545C50.6707 30.0748 50.5488 32.1232 50.4785 32.7888C50.4223 33.356 49.991 35.4138 49.8692 35.7279C49.8223 35.8498 49.7379 36.1216 49.6863 36.3373C49.452 37.242 48.6504 39.1216 47.9332 40.4295C47.366 41.4607 47.1363 41.8029 46.3442 42.7638C45.116 44.2638 44.6192 44.7888 43.3348 45.9185C41.8957 47.1842 41.291 47.6013 39.7723 48.3701C37.7051 49.4248 35.666 50.1654 33.9129 50.5029C32.9754 50.681 32.7645 50.7092 31.7332 50.7888C30.5332 50.8779 29.9942 50.8779 28.541 50.7888C27.5473 50.7279 27.2332 50.6904 26.291 50.5076C24.702 50.2029 23.7129 49.931 22.5832 49.4951C21.9082 49.2373 20.891 48.792 20.3801 48.5342C17.952 47.3154 15.2707 45.192 13.7613 43.2935C12.2004 41.3342 10.4707 38.0201 9.84258 35.7795C9.58008 34.856 9.29883 33.2435 9.08321 31.4763C8.98477 30.6373 9.00821 28.6591 9.13477 27.6091C9.31289 26.1138 9.68789 24.4638 10.1238 23.2498C10.6816 21.7029 10.7941 21.4404 11.4504 20.1326C11.952 19.1341 12.2191 18.6888 12.7957 17.906C14.1504 16.0685 15.8566 14.381 17.6238 13.1248C18.8473 12.2529 20.4316 11.4091 22.2598 10.6404C24.1629 9.84821 26.5442 9.33259 28.827 9.2154C29.4645 9.18259 31.227 9.23415 31.9207 9.30915ZM9.92227 11.4373C10.3301 11.4701 10.5223 11.5076 10.7754 11.6154C11.1598 11.7795 11.6332 12.1029 11.8582 12.3607C12.8566 13.4951 13.2223 15.5341 12.6691 16.8748C12.5801 17.0951 12.4301 17.3998 12.3363 17.5545C12.0223 18.0795 11.2535 19.1951 10.9488 19.5654C10.6207 19.9732 10.1941 20.7701 9.88946 21.5482C9.79102 21.7966 9.67852 22.0263 9.63164 22.0545C9.56602 22.092 9.50508 22.0498 9.27539 21.806C8.90039 21.3935 8.80664 21.1357 8.77383 20.4045C8.75508 19.8888 8.75977 19.8185 8.85352 19.6263C8.97539 19.3779 9.21914 19.1435 9.54258 18.9607C10.4379 18.4545 11.2535 17.6623 11.7176 16.8513C11.9941 16.3638 12.1863 15.7029 12.0457 15.7029C12.0223 15.7029 11.9988 15.7638 11.9988 15.8388C11.9988 15.9138 11.966 16.0076 11.9285 16.0498C11.8863 16.0873 11.7926 16.242 11.7129 16.392C11.1926 17.381 10.002 18.417 9.07852 18.6795C8.63321 18.806 8.24414 18.6982 7.56446 18.2576C7.33477 18.1123 7.13789 17.981 7.12852 17.9716C7.10039 17.9435 7.65352 16.8654 7.76602 16.7295C7.89727 16.5748 8.08946 16.5279 9.05039 16.4295C10.1145 16.3216 10.4379 16.1904 10.8926 15.7029C11.1316 15.4404 11.277 15.1591 11.2395 15.0373C11.2301 15.0091 11.0613 15.1357 10.8691 15.3232C10.452 15.731 10.2176 15.8623 9.70664 15.956C8.44102 16.1951 7.81289 15.8154 7.81758 14.8123C7.82227 14.5404 7.85039 14.381 7.92539 14.2029C8.09883 13.8045 8.68008 13.3591 9.03633 13.3591C9.20508 13.3591 9.25196 13.4248 9.30352 13.7341C9.34571 13.9826 9.47227 14.1795 9.65508 14.2732C9.93633 14.4185 10.1754 14.3388 10.4895 13.9966C10.6582 13.8138 10.6863 13.7529 10.6863 13.5841C10.6863 13.3263 10.466 12.8576 10.2691 12.6888C10.077 12.5295 9.88477 12.492 9.25664 12.4966C8.66602 12.5013 8.44102 12.567 7.98633 12.8763C7.20352 13.4107 6.86602 14.0951 6.62696 15.6326C6.52383 16.2982 6.56133 16.8279 6.74414 17.4841C6.93633 18.1591 7.37227 19.4295 7.60196 19.9685C8.28164 21.5716 8.51133 22.2748 8.76914 23.531C8.88633 24.131 8.91446 24.3701 8.91446 24.8904C8.91446 25.8326 8.75508 26.6482 8.45977 27.2341C8.16914 27.8107 7.34883 28.6498 6.80508 28.9357C6.18164 29.2638 5.92383 29.3201 5.06133 29.3201C4.2082 29.3201 3.9457 29.2638 3.25195 28.9451C2.16914 28.4482 1.36758 27.3326 1.16602 26.0529C1.03945 25.2513 1.27852 23.5029 1.63945 22.5466C1.75664 22.2466 2.13633 21.492 2.66602 20.5076C3.02227 19.8513 3.21914 19.392 3.53789 18.5013C3.6082 18.2998 3.70195 18.0888 3.74883 18.0326L3.8332 17.9295L4.03945 18.0279C4.15195 18.0841 4.36758 18.2388 4.51289 18.3748C4.87852 18.7076 4.93477 18.9091 4.91133 19.7763C4.89258 20.531 4.95352 20.4232 4.08633 21.3701C3.43477 22.0826 3.19102 22.4201 2.94727 22.9451C2.76445 23.3482 2.5957 23.892 2.63789 23.9388C2.65195 23.9482 2.74102 23.817 2.83945 23.6482C3.11602 23.1466 3.53789 22.6076 4.02539 22.1201C4.60196 21.5482 4.85039 21.3982 5.20664 21.4076C5.35196 21.4076 5.53946 21.4498 5.62852 21.492C5.93321 21.6513 6.52383 22.092 6.57071 22.1998C6.60821 22.2795 6.60821 22.4388 6.56602 22.7623C6.47227 23.5357 6.39258 23.6154 5.39883 23.9576C4.76133 24.1779 4.4332 24.342 4.07227 24.6279C3.73477 24.8904 3.38789 25.406 3.55195 25.406C3.5707 25.406 3.73008 25.2795 3.9082 25.1295C4.82227 24.3513 5.78321 24.0748 6.23321 24.4545C6.42539 24.6138 6.50039 24.7732 6.56133 25.1341C6.61758 25.5045 6.55664 25.9076 6.39727 26.1795C6.24258 26.4466 5.91914 26.7654 5.80664 26.7654C5.75039 26.7654 5.63321 26.6857 5.53477 26.592C5.44102 26.4982 5.29571 26.3716 5.20664 26.3107C4.90664 26.1091 4.46133 26.1982 4.12852 26.531C3.99727 26.667 3.9832 26.7045 3.9832 26.981C3.9832 27.6701 4.37695 27.9795 5.19727 27.9232C6.40664 27.8388 7.11914 27.2201 7.43321 25.9779C7.73789 24.7732 7.44727 23.4888 6.24258 20.742C5.30039 18.5904 5.10821 17.8545 5.10821 16.4201C5.10821 14.817 5.55352 13.4904 6.36914 12.642C7.11914 11.8591 7.79414 11.517 8.73633 11.4373C9.35508 11.3857 9.35039 11.3857 9.92227 11.4373ZM51.6317 11.531C52.4192 11.7279 53.2676 12.2716 53.7035 12.8576C54.0129 13.2748 54.3317 13.9779 54.5848 14.7888L54.8051 15.492L54.7817 16.5232C54.7629 17.3951 54.7395 17.6388 54.6363 18.117C54.4535 18.9748 54.1207 19.8982 53.5301 21.1873C52.7895 22.8091 52.5879 23.2638 52.4004 23.7888L52.1988 24.3513L52.1801 25.1576C52.1613 26.0201 52.1988 26.2638 52.4285 26.7185C52.7145 27.281 53.3988 27.806 54.1582 28.0357C54.4629 28.1248 54.9832 28.1013 55.2129 27.9841C55.6488 27.7638 55.9676 27.3654 55.9676 27.0373C55.9676 26.8029 55.7567 26.4185 55.5129 26.2029C55.3395 26.0529 55.2645 26.0154 55.1098 26.0154C54.7629 26.0154 54.4676 26.2966 54.3973 26.6951C54.3363 27.0607 54.1582 27.1263 53.7738 26.9341C53.3285 26.7091 52.9723 26.2498 52.8738 25.7716C52.7801 25.3123 52.8785 25.017 53.2301 24.7076C53.7082 24.2904 54.2426 24.1498 54.777 24.3045C55.3067 24.4591 55.5926 24.6373 56.0238 25.092C56.4176 25.5045 56.4363 25.5185 56.4363 25.3826C56.4317 25.0545 55.7238 24.3185 55.1473 24.0513C54.9926 23.9763 54.7067 23.8826 54.5145 23.8357C53.9332 23.6998 53.7317 23.5966 53.666 23.3998C53.6051 23.2123 53.6332 22.4107 53.7129 22.2091C53.7457 22.1201 53.877 22.0216 54.1582 21.867C54.6223 21.6185 54.8192 21.5904 55.1426 21.7451C55.4988 21.9185 56.3426 22.8748 56.9942 23.8545C57.1348 24.0654 57.2613 24.2248 57.2707 24.1966C57.2988 24.1123 57.0504 23.5685 56.7926 23.1326C56.652 22.8982 56.3613 22.4998 56.1504 22.242C55.6348 21.6232 55.2035 21.0091 55.0207 20.6388C54.8988 20.3904 54.866 20.2638 54.852 19.9498C54.8004 19.0123 55.227 18.206 55.9488 17.8732C56.277 17.7232 56.3238 17.7607 56.366 18.1779C56.4176 18.6982 56.5301 19.2607 56.6801 19.7341C56.8442 20.2451 56.9192 20.4138 57.0692 20.5779C57.1957 20.7232 57.852 21.9701 57.9785 22.317C58.1379 22.7482 58.3957 23.7701 58.4567 24.2107C58.5551 24.8904 58.541 25.9779 58.4332 26.3435C58.2176 27.0748 57.7067 27.9701 57.2285 28.4623C56.7738 28.9263 56.0801 29.1888 55.0254 29.2966C54.1863 29.381 53.4504 29.2826 52.9301 29.0201C52.1098 28.6076 51.5192 27.9279 51.1863 27.0091C50.7598 25.842 50.7504 24.8576 51.1442 23.2779C51.341 22.5045 51.416 22.2982 51.9504 21.0935C52.2035 20.5123 52.466 19.8888 52.5317 19.7107C52.5973 19.5279 52.7051 19.256 52.7801 19.1013C53.0004 18.6326 53.2442 17.8498 53.3004 17.4373C53.3801 16.8373 53.3285 15.4029 53.2067 14.9201C52.8973 13.6873 52.1942 12.9138 51.1254 12.6279C50.8395 12.5529 50.3895 12.5435 50.1551 12.6091C49.6676 12.7451 49.2645 13.1951 49.2645 13.5982C49.2645 13.7951 49.2832 13.8326 49.4567 13.992C49.7285 14.2404 50.1176 14.4091 50.3285 14.3763C50.5488 14.3388 50.8488 14.1373 50.9426 13.9591C51.0926 13.692 51.191 13.5935 51.3176 13.5935C51.641 13.5935 52.1707 14.0248 52.1707 14.292C52.1707 14.3623 52.2129 14.4795 52.2645 14.5451C52.3817 14.6951 52.3817 14.817 52.2645 15.1966C52.1754 15.4826 51.9645 15.8388 51.8004 15.9748C51.6223 16.1201 51.341 16.2185 51.0785 16.2185C50.6238 16.2185 50.1692 16.0263 49.2926 15.4591C49.1379 15.3607 49.0067 15.2904 48.9973 15.2998C48.9551 15.342 49.1942 15.731 49.3957 15.9466C49.6442 16.2138 50.052 16.4201 50.4598 16.4951C50.6145 16.5232 51.0738 16.5654 51.4817 16.5935C51.8895 16.617 52.2645 16.6591 52.3113 16.6873C52.452 16.7623 52.4895 16.8701 52.5223 17.2966C52.5363 17.517 52.5738 17.831 52.6067 17.9951L52.6582 18.2951L52.4051 18.5248C52.0348 18.8576 51.7067 19.0685 51.491 19.1154C51.2004 19.181 50.7879 19.0732 50.2863 18.8013C49.9207 18.6045 49.7285 18.4498 49.1098 17.8638C48.4113 17.1982 48.0926 16.9263 48.0926 16.992C48.0926 17.142 48.8332 18.0888 49.2692 18.4873C49.6113 18.806 50.141 19.1623 50.6988 19.4482C51.4067 19.8138 51.5988 20.0623 51.5473 20.5638C51.4817 21.206 50.6942 22.3451 50.3426 22.3029C50.216 22.2888 50.1645 22.1951 49.691 21.1732C49.4192 20.5873 48.7957 19.5654 47.9754 18.3513C47.3942 17.4935 47.216 17.1888 47.1082 16.8513C47.0754 16.7482 47.0145 16.617 46.977 16.556C46.8223 16.3216 46.9957 14.8591 47.277 14.0201C47.4363 13.5466 47.6567 13.2279 48.2051 12.6748C48.9129 11.967 49.5926 11.5498 50.216 11.4373C50.5582 11.3763 51.1863 11.4185 51.6317 11.531ZM14.4879 13.9638C14.6941 14.1701 14.7129 14.2732 14.5816 14.5545C14.4598 14.8263 14.3238 14.9295 14.0895 14.9295C13.8598 14.9295 13.6488 14.7935 13.5223 14.5638C13.4145 14.3576 13.452 14.2123 13.6816 13.9685C13.841 13.7998 13.8832 13.781 14.0848 13.781C14.2816 13.781 14.3285 13.8045 14.4879 13.9638ZM45.6832 14.0295C45.9645 14.2826 45.9645 14.7373 45.6879 14.906C45.5238 15.0091 45.1488 15.0326 44.9942 14.9529C44.6754 14.7795 44.6988 14.1279 45.0363 13.9498C45.2613 13.8279 45.4957 13.856 45.6832 14.0295ZM1.15195 27.806C1.19883 27.9185 1.40977 28.1763 1.61602 28.3873C2.20195 28.9779 2.86758 29.4091 3.59883 29.6716C3.7582 29.7279 3.88945 29.7935 3.88945 29.8076C3.88945 29.8732 3.62227 30.0841 3.25664 30.3045C2.4457 30.7966 1.97695 31.2091 1.47539 31.8841C1.34414 32.0576 1.21758 32.2029 1.18477 32.2029C1.15664 32.2029 1.05352 32.0529 0.964453 31.8701C0.805078 31.5513 0.795703 31.5091 0.795703 31.0685C0.795703 30.6466 0.781641 30.581 0.650391 30.3185C0.476953 29.981 0.481641 29.817 0.669141 29.3435C0.753516 29.1326 0.795703 28.9029 0.819141 28.5935C0.847266 28.1482 0.964454 27.6091 1.03008 27.6091C1.04883 27.6091 1.10039 27.6982 1.15195 27.806ZM58.9442 27.9935C59.0848 28.6357 59.0942 28.7107 59.0567 28.8138C58.9817 29.0154 59.0098 29.2638 59.1551 29.6248C59.3332 30.0841 59.3379 30.2998 59.1598 30.5435C59.0285 30.717 59.0238 30.7545 59.0051 31.2888C58.9957 31.7248 58.9676 31.8982 58.8973 32.0529L58.8035 32.2545L58.6067 31.9545C58.3863 31.617 57.6551 30.8998 57.1629 30.5295C56.9801 30.3935 56.6707 30.1966 56.4738 30.0888C56.2723 29.981 56.1223 29.8779 56.1317 29.8545C56.1457 29.8357 56.3613 29.7091 56.6098 29.5779C57.3598 29.1748 57.7957 28.8607 58.4613 28.2326C58.6629 28.0451 58.8457 27.8904 58.8738 27.8904C58.8973 27.8904 58.9301 27.9373 58.9442 27.9935ZM7.98633 29.4795C8.17852 29.606 8.29571 29.8076 8.29571 30.0185C8.29571 30.1638 8.26289 30.2295 8.13164 30.356C8.03789 30.4404 7.88321 30.5388 7.78008 30.567C7.56446 30.6326 7.41446 30.5576 7.26446 30.3138C7.16133 30.1498 7.13789 29.7748 7.21758 29.6248C7.33946 29.3998 7.74727 29.3248 7.98633 29.4795ZM52.2223 29.667C52.4332 29.8732 52.4613 30.056 52.3113 30.2435C52.1332 30.4685 51.6832 30.5998 51.627 30.4451C51.6082 30.4076 51.5707 30.3748 51.5379 30.3748C51.416 30.3748 51.327 30.2295 51.327 30.042C51.327 29.6904 51.5098 29.4888 51.8379 29.4841C52.0113 29.4841 52.0676 29.5076 52.2223 29.667ZM5.65664 30.4732C7.54102 30.6841 8.48321 31.767 9.00352 34.331C9.16289 35.1232 9.15821 35.2638 8.90508 36.2341C8.73633 36.8763 8.54414 37.3638 8.02852 38.456C7.81289 38.9201 7.59258 39.417 7.54571 39.5576C7.49883 39.7029 7.34883 40.0591 7.21758 40.3545C6.69258 41.517 6.50039 42.1123 6.42071 42.8295C6.33164 43.6685 6.50039 44.831 6.80039 45.431C7.09571 46.0217 7.66289 46.6029 8.18321 46.8373C8.37539 46.9263 8.49258 46.9451 8.92852 46.9451C9.35977 46.9451 9.48164 46.9263 9.66446 46.842C10.3582 46.5232 10.6816 45.881 10.4004 45.3795C10.1332 44.9013 9.43008 44.7748 9.11133 45.1545C8.98946 45.2998 8.98477 45.3092 9.01289 45.8295C9.02696 46.1201 9.03164 46.3592 9.02227 46.3592C8.83477 46.3592 8.23477 46.2373 8.11289 46.1717C7.82227 46.0263 7.62071 45.7357 7.45664 45.2482C7.30664 44.8029 7.32539 44.5592 7.54571 44.1279C7.88789 43.4388 8.15977 43.2701 8.77852 43.3545C9.60821 43.4717 10.4566 43.8982 10.5691 44.2545C10.616 44.3951 10.6863 44.3576 10.6863 44.1935C10.6863 44.0717 10.6348 43.992 10.4145 43.781C9.97383 43.3498 9.36914 43.106 8.61446 43.0545C7.58789 42.9842 7.45664 42.8998 7.21289 42.192C7.03477 41.6576 7.03008 41.6717 7.40039 41.231C7.73789 40.8279 7.84571 40.7623 8.20664 40.7435C8.92852 40.7013 9.70196 41.0998 10.8035 42.0888C11.0379 42.2951 11.2301 42.4451 11.2395 42.4217C11.3285 42.1592 10.2129 41.081 9.34102 40.5888C8.71758 40.242 8.48321 39.9654 8.48321 39.5857C8.48789 39.2576 8.60039 38.6716 8.69414 38.4841C8.80664 38.2685 9.41133 37.6779 9.50508 37.6966C9.55196 37.706 9.74883 38.0435 10.0066 38.5545C10.2363 39.0185 10.602 39.6607 10.8082 39.9841C11.0191 40.3076 11.2254 40.6451 11.2723 40.7341C11.3191 40.8232 11.4785 41.0857 11.6238 41.3201C12.0785 42.0373 12.4676 42.731 12.566 43.0076C12.716 43.4295 12.7723 44.2404 12.7066 44.967C12.6176 45.9373 12.3926 46.467 11.816 47.0763C11.2348 47.6857 10.6395 48.0748 10.0113 48.2576C9.61758 48.3748 8.28633 48.3373 7.76602 48.1967C7.16133 48.0326 6.81914 47.8357 6.38789 47.4045C6.05039 47.067 5.96602 46.9451 5.74571 46.4904C5.40821 45.7967 5.23946 45.3232 5.08946 44.6623C4.93477 43.9685 4.93477 43.631 5.10821 42.717C5.41289 41.0763 5.78789 39.9748 6.69727 38.0201C7.43789 36.4404 7.68164 35.5029 7.62539 34.4576C7.58321 33.567 7.26446 32.8029 6.73008 32.2685C6.28008 31.8279 6.07852 31.7341 5.57227 31.7341C5.02383 31.7341 4.84571 31.7951 4.58321 32.0623C4.29258 32.367 4.22227 32.592 4.33008 32.8826C4.49414 33.3138 4.81758 33.4966 5.13633 33.3466C5.30977 33.2623 5.67071 32.8545 5.67071 32.7373C5.67071 32.5545 6.16289 32.7888 6.44883 33.1076C6.68789 33.3748 6.79571 33.6654 6.82852 34.1576C6.85196 34.4482 6.84258 34.5138 6.75352 34.6591C6.54258 34.992 6.04571 35.292 5.62383 35.3295C5.41758 35.3482 5.30977 35.3295 5.10821 35.2451C4.78008 35.1091 4.31133 34.8091 3.98789 34.5326C3.61289 34.2091 3.4957 34.2373 3.74414 34.5841C3.99258 34.9216 4.55977 35.2404 5.51602 35.5779C5.82539 35.6857 6.14414 35.8123 6.21914 35.8591C6.45821 36.0045 6.52852 36.2295 6.55196 36.9373L6.57071 37.5701L6.32227 37.6873C6.18633 37.7529 5.91446 37.9076 5.72227 38.0295C5.53008 38.156 5.30508 38.2685 5.22071 38.2826C4.97227 38.3248 4.64414 38.1045 4.10977 37.5466C3.54727 36.956 3.10664 36.3607 2.84414 35.8216C2.74102 35.6107 2.63789 35.4373 2.61914 35.4373C2.51602 35.4373 2.53008 35.667 2.64258 35.8826C2.7082 36.0045 2.76445 36.1357 2.76445 36.1732C2.76445 36.3982 3.2707 37.092 4.21289 38.156C4.55977 38.5498 4.74258 38.8029 4.88789 39.0935C5.06602 39.4591 5.08477 39.5201 5.08008 39.8435C5.08008 40.1201 5.04258 40.2841 4.92071 40.617C4.77539 41.0154 4.74258 41.0623 4.31602 41.4888C3.85195 41.9482 3.67852 42.0607 3.60352 41.9482C3.58477 41.9154 3.52852 41.7373 3.48633 41.5545C3.2707 40.6592 2.98008 39.8904 2.23945 38.3013C1.41914 36.5341 1.30195 36.1123 1.30664 34.9404C1.30664 34.4201 1.33008 34.1201 1.37695 33.9795C1.41445 33.867 1.45664 33.6982 1.4707 33.6091C1.51758 33.356 1.93945 32.5123 2.27227 32.0107C2.87695 31.1013 3.59883 30.6091 4.52227 30.4732C4.92539 30.417 5.14571 30.417 5.65664 30.4732ZM55.5692 30.6795C55.9817 30.7873 56.7504 31.181 57.0645 31.4435C57.2192 31.5701 57.5145 31.8654 57.7254 32.1045C58.0582 32.4748 58.1285 32.592 58.2738 32.967C58.3676 33.2013 58.466 33.5482 58.4942 33.7357C58.5645 34.2045 58.5551 35.5216 58.4801 35.9529C58.4098 36.3326 57.941 37.542 57.5988 38.2263C56.7785 39.8576 56.4926 40.5982 56.3379 41.5076C56.2863 41.817 56.216 42.0982 56.1832 42.131C56.0848 42.2342 55.7613 42.1076 55.4942 41.8685C55.3301 41.7185 55.2035 41.5451 55.0535 41.2357C54.8238 40.7717 54.7488 40.4623 54.7488 40.0076C54.7488 39.3748 54.9317 39.0654 55.8551 38.1326C56.2113 37.767 56.6145 37.317 56.7457 37.1248C57.0879 36.6279 57.627 35.592 57.5613 35.5545C57.477 35.5029 57.3879 35.6107 57.0926 36.1357C56.5957 37.0123 55.8692 37.7529 55.1848 38.0951C54.9035 38.2357 54.8098 38.2591 54.6363 38.2404C54.327 38.2029 54.0176 38.0341 53.6754 37.706L53.366 37.4154L53.3707 37.0216C53.3754 36.6138 53.4457 36.3138 53.5723 36.1685C53.6942 36.0326 54.027 35.8826 54.6317 35.6998C55.466 35.4466 55.7988 35.2685 56.1832 34.8654C56.5348 34.4951 56.7785 34.1201 56.7551 33.9935C56.7457 33.942 56.6473 34.031 56.4457 34.2795C55.377 35.5873 53.6192 35.8357 53.0848 34.7576C52.7895 34.1623 53.2301 33.1826 53.877 32.9998C54.1442 32.9248 54.252 32.967 54.3832 33.1779C54.5754 33.492 54.941 33.7498 55.1848 33.7498C55.4707 33.7498 55.7285 33.3466 55.7332 32.906C55.7332 32.5404 55.6207 32.3716 55.241 32.1935C54.3926 31.7998 53.4832 31.9498 52.8645 32.592C52.5551 32.9154 52.4613 33.0935 52.2692 33.7263C52.1332 34.167 52.1238 34.242 52.1238 34.9216C52.1285 36.192 52.1707 36.356 52.9582 37.992C54.3082 40.8045 54.5051 41.2592 54.6785 41.9482C54.8848 42.7592 54.9551 44.3154 54.8192 45.117C54.7629 45.4498 54.6879 45.6513 54.4817 46.0638C54.0879 46.8607 53.802 47.2685 53.2442 47.8123C52.8082 48.2435 52.6817 48.3373 52.2598 48.5482C51.6832 48.8388 51.4535 48.8904 50.6942 48.8904C49.9488 48.8904 49.7051 48.8435 49.1942 48.5904C48.4817 48.2342 47.8488 47.6013 47.5113 46.8982C47.202 46.256 46.9207 45.1404 46.9207 44.5404C46.9207 43.9779 47.2348 42.8435 47.5488 42.2576C47.7692 41.8498 48.2895 41.0201 48.6785 40.4529C49.4707 39.2998 49.9488 38.3904 50.0192 37.8888C50.066 37.5654 50.127 37.406 50.2067 37.406C50.291 37.406 50.8863 38.006 51.0692 38.2685C51.2895 38.592 51.3598 38.9716 51.2848 39.4873C51.2051 40.0732 51.1067 40.2185 50.4363 40.7529C49.4098 41.5732 48.5473 42.506 48.3598 42.9982C48.3129 43.1201 48.3551 43.0873 49.0676 42.431C50.1879 41.4045 50.8957 40.9076 51.2332 40.9076C51.566 40.9076 51.8895 41.1232 52.3582 41.6529C52.4473 41.7513 52.5598 41.8545 52.6067 41.8826C52.6863 41.9295 52.6863 41.9529 52.6113 42.4217C52.5082 43.1013 52.4098 43.4013 52.2504 43.5185C52.1379 43.5982 52.0207 43.617 51.3129 43.6451C50.3004 43.692 50.2254 43.7107 49.6207 44.1326C49.2598 44.3857 49.0301 44.5967 49.0301 44.6717C49.0301 44.7279 49.0629 44.7092 49.5692 44.3763C49.9535 44.1138 50.4317 43.9592 50.8442 43.9498C51.1535 43.9498 51.2145 43.9638 51.5942 44.156C52.1145 44.4232 52.1895 44.5451 52.1895 45.1404C52.1942 45.4732 52.1707 45.581 52.0676 45.806C51.8379 46.3029 51.3551 46.6967 50.9567 46.706L50.7926 46.7107L50.7317 46.3123C50.6801 45.9467 50.6613 45.8998 50.5113 45.7592C50.291 45.5623 50.0051 45.5529 49.6442 45.731C49.3395 45.8857 49.2645 45.9982 49.2317 46.3451C49.1942 46.7435 49.2832 47.0013 49.541 47.2545C49.8598 47.5732 50.1973 47.6857 50.741 47.6623C51.4254 47.6342 51.8988 47.3623 52.3957 46.7201C52.752 46.2513 53.1551 45.5576 53.2535 45.2248C53.4457 44.592 53.4457 42.9279 53.2488 42.0935C53.1363 41.6201 52.5879 40.2045 52.0395 38.9998C51.2754 37.3076 51.0457 36.4216 51.0457 35.1841C51.0457 33.0935 51.7348 31.7482 53.1785 31.017C53.8817 30.6654 54.9317 30.5154 55.5692 30.6795ZM14.3332 45.206C14.441 45.3138 14.4598 45.3701 14.4598 45.6138C14.4598 45.8576 14.4457 45.9092 14.3426 45.9842C14.1973 46.0967 13.8691 46.1482 13.677 46.0967C13.2598 45.9748 13.2316 45.342 13.6348 45.1123C13.827 45.0045 14.1832 45.0513 14.3332 45.206ZM45.6176 45.1967C45.852 45.3279 45.9879 45.5529 45.9973 45.8154C46.0067 45.9888 45.9832 46.0498 45.866 46.1763C45.491 46.5748 44.9895 46.5232 44.7551 46.0685C44.652 45.8717 44.6332 45.5295 44.7176 45.3748C44.8629 45.1029 45.2942 45.0185 45.6176 45.1967ZM15.7488 46.8935C16.5363 47.0623 17.0895 47.3482 18.8191 48.4685C19.7473 49.0685 20.666 49.542 21.5754 49.8748C21.9551 50.0107 22.2645 50.1467 22.2645 50.1654C22.2645 50.2545 22.0301 50.5685 21.8238 50.756C21.402 51.1451 20.7363 51.3654 20.1832 51.3045C19.5879 51.2342 19.5223 51.1826 18.7582 50.1701C18.1441 49.3592 17.8582 49.0638 17.366 48.7357C17.0801 48.5482 16.7332 48.4076 16.7332 48.4826C16.7332 48.4967 16.9066 48.6513 17.1223 48.8342C17.5348 49.1857 18.0879 49.7998 18.4113 50.2638C18.641 50.5967 18.8426 51.1779 18.8426 51.5154C18.8426 51.7076 18.8145 51.7779 18.6363 52.017C18.3973 52.3357 17.891 52.8279 17.8066 52.8279C17.7738 52.8279 17.7035 52.7857 17.6473 52.7342C17.591 52.6779 17.3801 52.5701 17.1785 52.4857C16.9676 52.4013 16.7754 52.2842 16.7285 52.2185C16.6816 52.1529 16.5973 51.8717 16.541 51.5857C16.3113 50.3857 15.8754 49.3873 15.477 49.1576C15.2941 49.0545 15.2566 49.1107 15.3785 49.317C15.8707 50.1607 16.1191 51.267 15.941 51.806C15.8707 52.0263 15.6129 52.2513 15.3973 52.2935C15.1957 52.331 14.8254 52.2607 14.5254 52.1342C14.2348 52.0076 13.766 51.6092 13.6676 51.4029C13.5738 51.206 13.602 51.1404 13.8738 50.8263C14.2488 50.3998 14.2488 49.7951 13.8691 49.3967C13.7238 49.242 13.6723 49.2185 13.4941 49.2185C13.2316 49.2185 13.0301 49.3404 12.8238 49.6263C12.6129 49.9123 12.5613 50.1326 12.5613 50.7092C12.5613 51.1685 12.5613 51.1732 12.7957 51.6513C13.0723 52.2138 13.3863 52.5748 13.9113 52.9263C14.366 53.231 14.5957 53.292 15.4395 53.3248C16.4754 53.367 17.0988 53.2967 18.1395 53.0201C19.2316 52.7248 19.5879 52.6029 20.6941 52.1388C22.7332 51.281 23.7973 50.9998 25.0067 50.9998C26.441 50.9998 27.4301 51.3701 28.4379 52.2842C28.7192 52.5373 29.052 53.0248 29.291 53.531L29.4598 53.8826L29.4551 54.6092C29.4504 55.256 29.4363 55.3826 29.3238 55.7482C29.2582 55.9779 29.1551 56.2498 29.0988 56.3576C28.5223 57.4967 27.2332 58.5232 26.1082 58.7388C25.9395 58.7717 25.466 58.7951 25.0535 58.7951C24.3973 58.7951 24.2473 58.781 23.8395 58.6732C23.2301 58.5092 22.1051 58.0592 20.6051 57.3654C19.9348 57.056 19.1707 56.7326 18.9129 56.6435C18.5332 56.517 17.8629 56.3951 17.5488 56.3904C17.3379 56.3904 17.5582 55.8373 17.8723 55.5701C18.4066 55.1107 19.5223 54.7967 20.1082 54.9373C20.3895 55.0029 20.5676 55.1435 21.5379 56.0623C22.5363 57.0045 23.3192 57.4732 24.0035 57.5482C24.4113 57.5904 24.3598 57.506 23.7692 57.1873C22.8692 56.7045 21.5895 55.6404 21.3785 55.1998C21.2566 54.9513 21.252 54.6045 21.3691 54.3513C21.491 54.0795 22.0067 53.4185 22.1332 53.3623C22.1942 53.3342 22.3348 53.3295 22.452 53.3482C22.5692 53.367 22.7801 53.3857 22.9254 53.3857C23.2488 53.3904 23.4692 53.4607 23.6332 53.6154C23.7879 53.756 23.8395 53.9154 23.877 54.342C23.9426 55.031 24.252 55.6498 24.7863 56.1654C25.1098 56.4795 25.541 56.7326 25.841 56.7888C26.1129 56.8404 26.052 56.742 25.6863 56.5498C25.2598 56.3295 24.7254 55.7717 24.5051 55.3217C24.3598 55.031 24.3504 54.9748 24.3504 54.5388C24.3504 53.9998 24.4301 53.7701 24.7254 53.4467C24.9692 53.1748 25.2176 53.0904 25.7004 53.1185C26.3848 53.1513 26.8676 53.4888 27.027 54.0326C27.1395 54.4263 27.116 54.4826 26.7973 54.5482C26.1504 54.6748 26.0098 55.2607 26.502 55.7529C26.7457 56.0013 26.891 56.0388 27.2051 55.9498C27.5098 55.8607 27.8098 55.6076 27.9738 55.2935C28.0863 55.0779 28.1004 55.0076 28.1004 54.5623C28.1004 54.0982 28.091 54.0467 27.9504 53.7607C27.7582 53.3717 27.491 53.067 27.1254 52.8185C26.6801 52.5138 26.1363 52.3451 25.1848 52.2138C24.8051 52.1623 24.6973 52.1623 24.2707 52.2373C23.141 52.4342 21.9504 52.8935 20.9426 53.517C20.141 54.0138 19.3441 54.3373 18.1816 54.6513C17.3566 54.8717 16.8691 54.942 16.1426 54.942C15.3738 54.9467 15.0738 54.8998 14.4223 54.6748C13.3863 54.3185 12.7723 53.9248 12.1957 53.2498C11.4457 52.3685 11.2676 51.8154 11.3051 50.4888C11.3238 49.8326 11.3332 49.7904 11.4973 49.392C11.7879 48.6795 12.4441 47.8123 12.6926 47.8123C12.7395 47.8123 12.8426 47.7326 12.9223 47.6342C13.1613 47.3388 13.8973 47.0342 14.7035 46.8982C15.1863 46.8185 15.3832 46.8185 15.7488 46.8935ZM45.4442 47.1326C46.3395 47.292 46.8176 47.5357 47.441 48.1404C48.0879 48.7732 48.4863 49.4717 48.6129 50.1842C48.7676 51.0701 48.491 52.3685 47.9942 53.0951C47.5957 53.6763 46.827 54.3092 46.166 54.5951C45.5051 54.881 45.0223 54.956 43.8504 54.9607C42.3457 54.9607 41.8207 54.8435 40.4051 54.2013C39.9785 54.0092 39.5285 53.8123 39.3973 53.7654C39.2707 53.7185 38.7317 53.4935 38.202 53.2592C36.4348 52.4857 36.2145 52.4342 34.7051 52.4623C33.6082 52.481 33.5942 52.4857 32.9332 52.8701C32.4645 53.142 32.066 53.5263 31.8926 53.8873C31.7707 54.1404 31.7567 54.2107 31.7567 54.6795C31.7567 55.2654 31.827 55.4623 32.1129 55.6967C32.5488 56.0482 33.402 55.8279 33.491 55.3404C33.5613 54.9748 33.2707 54.5248 32.8957 54.4123C32.7973 54.3842 32.6942 54.3326 32.666 54.2998C32.5207 54.1217 32.9051 53.5685 33.3223 53.3623C33.4582 53.292 33.7113 53.2076 33.8848 53.1748C34.1895 53.1138 34.1988 53.1185 34.3817 53.2404C34.8223 53.5404 35.1551 54.0373 35.1551 54.3888C35.1551 54.6842 35.0098 55.3779 34.902 55.617C34.7004 56.0576 34.227 56.4935 33.6504 56.7701C33.3457 56.9201 33.3129 57.0138 33.5567 57.0373C33.9551 57.0795 34.5973 56.6295 35.0145 56.0154C35.2582 55.6592 35.3285 55.4717 35.4645 54.867C35.5301 54.5717 35.6473 54.2107 35.741 54.0185C35.9285 53.6295 36.0738 53.5357 36.7957 53.306C37.5176 53.081 37.4848 53.081 37.5504 53.2873C37.5785 53.381 37.6863 53.6201 37.7801 53.8123C38.0145 54.281 38.0754 54.4826 38.0707 54.7779C38.066 55.1435 37.8785 55.481 37.3817 56.006C36.866 56.5498 36.416 56.9201 35.8301 57.2623C35.5863 57.4029 35.3895 57.5342 35.3895 57.5482C35.3895 57.6045 35.7551 57.5013 36.1442 57.3326C36.7254 57.0795 37.0395 56.8357 37.9442 55.9217C38.7738 55.0826 38.9988 54.8951 39.2895 54.8013C39.5238 54.7263 40.0442 54.731 40.3348 54.8154C40.9348 54.9842 41.0754 55.0638 41.441 55.4482C41.7738 55.7951 42.1254 56.3482 42.0692 56.4373C42.0598 56.456 41.7879 56.4842 41.4692 56.5029C40.4285 56.5592 39.9363 56.7232 37.7801 57.7123C36.9645 58.092 36.6598 58.2092 35.891 58.4482C35.4504 58.5842 33.9692 58.6732 33.402 58.6029C32.9473 58.542 32.4785 58.3638 32.0707 58.0873C31.752 57.867 31.2738 57.3701 31.1004 57.0701C30.7395 56.4607 30.4582 55.5232 30.4629 54.9654C30.4676 54.5763 30.6363 53.8592 30.8238 53.4279C31.1848 52.6076 31.7895 51.9373 32.4785 51.5904C33.1301 51.267 33.4488 51.2107 34.6395 51.2107C35.7926 51.2154 36.1348 51.2623 37.002 51.5623C37.5879 51.7638 38.7363 52.2185 39.2426 52.4435C39.416 52.5232 39.7863 52.6732 40.0629 52.7763C40.3395 52.8795 40.7379 53.0388 40.9488 53.1279C41.7692 53.4888 42.7863 53.6482 43.9582 53.6107C45.0176 53.5779 45.5895 53.4232 46.2223 52.9967C47.1785 52.3545 47.6567 51.3795 47.4129 50.5545C47.2488 49.992 47.0192 49.6685 46.677 49.5279C46.1379 49.3029 45.6129 49.6826 45.6645 50.2592C45.6879 50.4607 45.7207 50.517 46.0254 50.8357C46.2082 51.0279 46.3582 51.2201 46.3582 51.2623C46.3582 51.4029 46.0582 51.8998 45.8567 52.106C45.5988 52.3638 45.4113 52.4201 44.9332 52.3967C44.3801 52.3685 44.1832 52.2513 43.9676 51.8248C43.8223 51.5295 43.8035 51.4545 43.8035 51.1217C43.8035 50.5357 43.977 50.2123 44.802 49.2701C45.102 48.9232 45.1442 48.8435 45.0176 48.8435C44.9192 48.8435 43.9863 49.7529 43.8176 50.0154C43.5832 50.381 43.4473 50.9013 43.4051 51.5857C43.3629 52.3123 43.2973 52.5138 43.0582 52.6123C42.9176 52.6685 41.8629 52.9217 41.7551 52.9217C41.7363 52.9217 41.6426 52.8092 41.5488 52.6685C41.4551 52.5279 41.2957 52.3545 41.1973 52.2842C41.0942 52.2138 40.9442 52.0826 40.8645 51.9935C40.7285 51.8388 40.7238 51.8107 40.7473 51.5342C40.7848 51.0232 41.2442 50.292 41.966 49.5795C42.4067 49.1482 42.7442 48.8998 43.3817 48.5388C43.6395 48.3935 43.8832 48.2435 43.9207 48.2013C43.9817 48.1357 43.9723 48.131 43.827 48.1545C43.541 48.192 42.8332 48.5201 42.3551 48.8342C41.7598 49.2279 41.052 49.9076 40.5692 50.5545C40.1379 51.131 39.8848 51.3888 39.6785 51.4685C39.3129 51.6138 38.5254 51.4685 38.0942 51.1826C37.8363 51.0138 37.5082 50.6529 37.4426 50.4701C37.4145 50.3998 37.3629 50.3435 37.3207 50.3435C37.2551 50.3388 37.2645 50.3248 37.3488 50.2498C37.4473 50.1654 37.5598 50.1373 38.202 50.0248C38.6895 49.9357 39.3363 49.5654 40.4379 48.7404C41.6145 47.8638 42.8285 47.2404 43.7098 47.067C44.0238 47.006 44.9192 47.0388 45.4442 47.1326ZM10.9582 49.0592L10.7613 49.5232L10.7707 50.6623C10.7848 51.9513 10.7941 51.9138 10.4238 51.7732C10.2785 51.717 10.1754 51.6373 10.0957 51.5154C9.96446 51.3138 9.74883 51.1545 9.39727 50.9951C9.12071 50.8638 8.53008 50.3013 8.53008 50.1701C8.53008 50.1185 8.39883 49.8935 8.23477 49.6779C7.95352 49.2982 7.78946 49.0076 7.83633 48.9607C7.84571 48.9467 8.19727 48.9607 8.60977 48.9935C9.56133 49.0592 9.97852 49.0123 10.6488 48.7592C10.916 48.656 11.1363 48.581 11.1457 48.5857C11.1504 48.5904 11.066 48.8013 10.9582 49.0592ZM49.6207 49.2888C50.2301 49.4013 50.9332 49.4435 51.5098 49.3967C51.8004 49.3732 52.0488 49.3638 52.0629 49.3732C52.1004 49.4154 51.6504 49.9685 51.3973 50.1842C51.252 50.3107 51.0598 50.531 50.9754 50.6717C50.7832 50.9904 50.6754 51.0888 50.3192 51.2763C50.1645 51.356 49.8832 51.5482 49.691 51.7029C49.1801 52.1107 48.9504 52.1295 48.9973 51.7638C49.1238 50.7888 49.1285 50.6998 49.077 50.1185C49.0488 49.7904 49.0113 49.4529 48.9973 49.3685C48.9738 49.2279 48.9785 49.2185 49.1145 49.2185C49.1895 49.2185 49.4192 49.2513 49.6207 49.2888ZM30.3223 51.7404C30.5332 51.9092 30.627 52.092 30.5848 52.256C30.5473 52.4154 30.1348 52.8279 30.0176 52.8279C29.8535 52.8279 29.5113 52.6217 29.4223 52.467C29.3145 52.2842 29.3051 51.9748 29.4035 51.8295C29.591 51.5388 30.0223 51.4967 30.3223 51.7404ZM30.2145 56.7326C30.6926 57.5342 30.9317 57.8717 31.4004 58.392C31.6348 58.6545 31.827 58.8935 31.827 58.9217C31.827 58.9498 31.7473 59.006 31.6535 59.0435C31.5129 59.1045 31.3817 59.1138 30.9785 59.0857L30.4817 59.0529L30.4488 59.1701C30.4067 59.3388 30.1676 59.4935 29.9098 59.517C29.6895 59.5404 29.5301 59.4607 29.1457 59.1513C29.0285 59.0576 29.0051 59.0529 28.8082 59.1092C28.5176 59.1888 27.7723 59.156 27.6738 59.0529C27.6035 58.9873 27.641 58.9451 28.0817 58.6123C28.6301 58.1998 29.3051 57.5342 29.3801 57.342C29.4082 57.267 29.5067 57.0185 29.5957 56.7842C29.6895 56.5498 29.7645 56.3248 29.7645 56.2873C29.7645 56.1982 29.8113 56.1513 29.8629 56.1842C29.8863 56.1982 30.0457 56.4467 30.2145 56.7326Z" fill="#3AB037"/>
<path d="M3.35036 33.7915C3.3363 33.8149 3.37849 33.8946 3.44411 33.9696C3.56599 34.1056 3.59411 34.0728 3.51442 33.8712C3.46755 33.7446 3.40192 33.7165 3.35036 33.7915Z" fill="#3AB037"/>
<path d="M36.4056 44.5099C36.2706 44.1856 35.8888 44.0267 35.5638 44.1612C35.2389 44.2957 35.0819 44.6789 35.2158 45.003C35.35 45.3277 35.7323 45.4857 36.0569 45.3516C36.3827 45.2171 36.5387 44.8349 36.4056 44.5099Z" fill="white"/>
<g clip-path="url(#clip0)">
<path d="M38.4669 25.3699L38.4699 24.8938L37.9938 24.8968C35.6937 24.9112 33.798 26.7366 33.6697 29.0095L30.6526 32.0265V22.7638L32.6373 20.7925C34.5617 20.691 36.1095 19.0886 36.1217 17.1431L36.1246 16.667L35.6485 16.67C33.7223 16.6821 32.133 18.1995 32.0031 20.0971L30.6526 21.4385V20.2274C30.6526 19.9677 30.4421 19.7572 30.1824 19.7572C29.9227 19.7572 29.7122 19.9677 29.7122 20.2274V28.8466L27.8319 26.965L27.851 26.9505C29.3127 25.8414 29.6144 23.7385 28.5237 22.263L28.2406 21.8802L27.8614 22.168C26.724 23.0311 26.2893 24.4958 26.6662 25.7985L26.4629 25.5951C26.404 24.453 25.9232 23.3788 25.0952 22.5507C24.2167 21.6724 23.0611 21.1843 21.8413 21.1767L21.3652 21.1737L21.3682 21.6498C21.3759 22.8697 21.8639 24.0252 22.7424 24.9037C23.576 25.7373 24.6593 26.2185 25.81 26.272L26.1371 26.5994C25.8823 26.5383 25.62 26.5054 25.3552 26.5054C24.1556 26.5054 23.0372 27.1365 22.4363 28.1524L22.1939 28.5622L22.6068 28.7994C23.1086 29.0878 23.6828 29.2402 24.2672 29.2402C25.453 29.2402 26.5586 28.6228 27.1643 27.6273L29.7122 30.1768V33.156C29.7121 33.1598 29.7122 35.3516 29.7122 35.3516L26.9884 32.6278C26.8048 32.4442 26.5071 32.4442 26.3234 32.6278C26.1398 32.8114 26.1398 33.1092 26.3234 33.2927L29.7122 36.6816V42.3932H23.3191C23.0594 42.3932 22.8489 42.6037 22.8489 42.8634C22.8489 43.1231 23.0594 43.3336 23.3191 43.3336H36.3493C36.609 43.3336 36.8195 43.1231 36.8195 42.8634C36.8195 42.6037 36.609 42.3932 36.3493 42.3932H30.6526V33.3565L32.3954 31.6137C33.0862 32.3528 34.0526 32.7721 35.094 32.7721C35.9108 32.7721 36.6802 32.5134 37.319 32.0239L37.697 31.7344L37.4027 31.3601C36.706 30.474 35.6479 29.9657 34.4997 29.9657C34.3347 29.9657 34.1718 29.9768 34.0114 29.9977L34.3136 29.6955C36.6054 29.5874 38.4525 27.6836 38.4669 25.3699ZM35.1232 17.6685C34.8978 18.7191 34.0428 19.574 32.9923 19.7994C33.2177 18.7488 34.0726 17.8938 35.1232 17.6685ZM28.0377 23.2953C28.3908 24.1273 28.2478 25.1241 27.675 25.8232C27.3217 24.9912 27.4648 23.9944 28.0377 23.2953ZM24.2673 28.3C24.0313 28.3 23.7978 28.2655 23.5748 28.1988C24.0296 27.7253 24.6739 27.4459 25.3553 27.4459C25.5914 27.4459 25.8248 27.4804 26.0478 27.5471C25.5929 28.0205 24.9487 28.3 24.2673 28.3ZM23.4073 24.2388C22.8298 23.6613 22.4634 22.9358 22.3479 22.1564C23.1274 22.2719 23.8529 22.6384 24.4304 23.2159C25.0079 23.7934 25.3743 24.5189 25.4898 25.2983C24.7104 25.1828 23.9848 24.8163 23.4073 24.2388ZM36.2952 31.5576C35.9268 31.738 35.5194 31.8317 35.094 31.8317C34.4203 31.8317 33.789 31.5988 33.2986 31.1801C33.667 30.9997 34.0744 30.906 34.4997 30.906C35.1736 30.906 35.8047 31.1389 36.2952 31.5576ZM35.6136 26.8476C36.1336 26.3277 36.784 25.9937 37.4834 25.8803C37.3701 26.5798 37.0361 27.2303 36.5161 27.7502C35.9962 28.2702 35.3458 28.6042 34.6463 28.7176C34.7597 28.0181 35.0936 27.3676 35.6136 26.8476Z" fill="white"/>
</g>
<defs>
<clipPath id="clip0">
<rect width="17.1678" height="26.6667" fill="white" transform="translate(21.334 16.667)"/>
</clipPath>
</defs>
</svg>
